<?xml version="1.0" encoding="UTF-8" standalone="no"?>
<!DOCTYPE svg PUBLIC "-//W3C//DTD SVG 1.1//EN"
 "http://www.w3.org/Graphics/SVG/1.1/DTD/svg11.dtd">
<!-- Generated by graphviz version 2.40.1 (20161225.0304)
 -->
<!-- Title: unix Pages: 1 -->
<svg width="182pt" height="836pt"
 viewBox="0.00 0.00 182.18 836.00" xmlns="http://www.w3.org/2000/svg" xmlns:xlink="http://www.w3.org/1999/xlink">
<g id="graph0" class="graph" transform="scale(1 1) rotate(0) translate(4 832)">
<title>unix</title>
<polygon fill="#ffffff" stroke="transparent" points="-4,4 -4,-832 178.1845,-832 178.1845,4 -4,4"/>
<!-- airplane -->
<g id="node1" class="node">
<title>airplane</title>
<ellipse fill="#b2dfee" stroke="#b2dfee" cx="87.0923" cy="-18" rx="38.9931" ry="18"/>
<text text-anchor="middle" x="87.0923" y="-14.3" font-family="Times,serif" font-size="14.00" fill="#000000">airplane</text>
</g>
<!-- heavier&#45;than&#45;air_craft -->
<g id="node2" class="node">
<title>heavier&#45;than&#45;air_craft</title>
<ellipse fill="#b2dfee" stroke="#b2dfee" cx="87.0923" cy="-90" rx="87.1846" ry="18"/>
<text text-anchor="middle" x="87.0923" y="-86.3" font-family="Times,serif" font-size="14.00" fill="#000000">heavier&#45;than&#45;air_craft</text>
</g>
<!-- airplane&#45;&gt;heavier&#45;than&#45;air_craft -->
<g id="edge1" class="edge">
<title>airplane&#45;&gt;heavier&#45;than&#45;air_craft</title>
<path fill="none" stroke="#000000" d="M87.0923,-36.1686C87.0923,-43.869 87.0923,-53.0257 87.0923,-61.5834"/>
<polygon fill="#000000" stroke="#000000" points="83.5924,-61.5867 87.0923,-71.5867 90.5924,-61.5868 83.5924,-61.5867"/>
</g>
<!-- aircraft -->
<g id="node3" class="node">
<title>aircraft</title>
<ellipse fill="#b2dfee" stroke="#b2dfee" cx="87.0923" cy="-162" rx="36.2938" ry="18"/>
<text text-anchor="middle" x="87.0923" y="-158.3" font-family="Times,serif" font-size="14.00" fill="#000000">aircraft</text>
</g>
<!-- heavier&#45;than&#45;air_craft&#45;&gt;aircraft -->
<g id="edge2" class="edge">
<title>heavier&#45;than&#45;air_craft&#45;&gt;aircraft</title>
<path fill="none" stroke="#000000" d="M87.0923,-108.1686C87.0923,-115.869 87.0923,-125.0257 87.0923,-133.5834"/>
<polygon fill="#000000" stroke="#000000" points="83.5924,-133.5867 87.0923,-143.5867 90.5924,-133.5868 83.5924,-133.5867"/>
</g>
<!-- craft -->
<g id="node4" class="node">
<title>craft</title>
<ellipse fill="#b2dfee" stroke="#b2dfee" cx="87.0923" cy="-234" rx="27" ry="18"/>
<text text-anchor="middle" x="87.0923" y="-230.3" font-family="Times,serif" font-size="14.00" fill="#000000">craft</text>
</g>
<!-- aircraft&#45;&gt;craft -->
<g id="edge3" class="edge">
<title>aircraft&#45;&gt;craft</title>
<path fill="none" stroke="#000000" d="M87.0923,-180.1686C87.0923,-187.869 87.0923,-197.0257 87.0923,-205.5834"/>
<polygon fill="#000000" stroke="#000000" points="83.5924,-205.5867 87.0923,-215.5867 90.5924,-205.5868 83.5924,-205.5867"/>
</g>
<!-- vehicle -->
<g id="node5" class="node">
<title>vehicle</title>
<ellipse fill="#b2dfee" stroke="#b2dfee" cx="87.0923" cy="-306" rx="36.2938" ry="18"/>
<text text-anchor="middle" x="87.0923" y="-302.3" font-family="Times,serif" font-size="14.00" fill="#000000">vehicle</text>
</g>
<!-- craft&#45;&gt;vehicle -->
<g id="edge4" class="edge">
<title>craft&#45;&gt;vehicle</title>
<path fill="none" stroke="#000000" d="M87.0923,-252.1686C87.0923,-259.869 87.0923,-269.0257 87.0923,-277.5834"/>
<polygon fill="#000000" stroke="#000000" points="83.5924,-277.5867 87.0923,-287.5867 90.5924,-277.5868 83.5924,-277.5867"/>
</g>
<!-- conveyance -->
<g id="node6" class="node">
<title>conveyance</title>
<ellipse fill="#b2dfee" stroke="#b2dfee" cx="87.0923" cy="-378" rx="51.9908" ry="18"/>
<text text-anchor="middle" x="87.0923" y="-374.3" font-family="Times,serif" font-size="14.00" fill="#000000">conveyance</text>
</g>
<!-- vehicle&#45;&gt;conveyance -->
<g id="edge5" class="edge">
<title>vehicle&#45;&gt;conveyance</title>
<path fill="none" stroke="#000000" d="M87.0923,-324.1686C87.0923,-331.869 87.0923,-341.0257 87.0923,-349.5834"/>
<polygon fill="#000000" stroke="#000000" points="83.5924,-349.5867 87.0923,-359.5867 90.5924,-349.5868 83.5924,-349.5867"/>
</g>
<!-- instrumentality -->
<g id="node7" class="node">
<title>instrumentality</title>
<ellipse fill="#b2dfee" stroke="#b2dfee" cx="87.0923" cy="-450" rx="64.189" ry="18"/>
<text text-anchor="middle" x="87.0923" y="-446.3" font-family="Times,serif" font-size="14.00" fill="#000000">instrumentality</text>
</g>
<!-- conveyance&#45;&gt;instrumentality -->
<g id="edge6" class="edge">
<title>conveyance&#45;&gt;instrumentality</title>
<path fill="none" stroke="#000000" d="M87.0923,-396.1686C87.0923,-403.869 87.0923,-413.0257 87.0923,-421.5834"/>
<polygon fill="#000000" stroke="#000000" points="83.5924,-421.5867 87.0923,-431.5867 90.5924,-421.5868 83.5924,-421.5867"/>
</g>
<!-- artifact -->
<g id="node8" class="node">
<title>artifact</title>
<ellipse fill="#b2dfee" stroke="#b2dfee" cx="87.0923" cy="-522" rx="35.9954" ry="18"/>
<text text-anchor="middle" x="87.0923" y="-518.3" font-family="Times,serif" font-size="14.00" fill="#000000">artifact</text>
</g>
<!-- instrumentality&#45;&gt;artifact -->
<g id="edge7" class="edge">
<title>instrumentality&#45;&gt;artifact</title>
<path fill="none" stroke="#000000" d="M87.0923,-468.1686C87.0923,-475.869 87.0923,-485.0257 87.0923,-493.5834"/>
<polygon fill="#000000" stroke="#000000" points="83.5924,-493.5867 87.0923,-503.5867 90.5924,-493.5868 83.5924,-493.5867"/>
</g>
<!-- whole -->
<g id="node9" class="node">
<title>whole</title>
<ellipse fill="#b2dfee" stroke="#b2dfee" cx="87.0923" cy="-594" rx="32.4942" ry="18"/>
<text text-anchor="middle" x="87.0923" y="-590.3" font-family="Times,serif" font-size="14.00" fill="#000000">whole</text>
</g>
<!-- artifact&#45;&gt;whole -->
<g id="edge8" class="edge">
<title>artifact&#45;&gt;whole</title>
<path fill="none" stroke="#000000" d="M87.0923,-540.1686C87.0923,-547.869 87.0923,-557.0257 87.0923,-565.5834"/>
<polygon fill="#000000" stroke="#000000" points="83.5924,-565.5867 87.0923,-575.5867 90.5924,-565.5868 83.5924,-565.5867"/>
</g>
<!-- object -->
<g id="node10" class="node">
<title>object</title>
<ellipse fill="#b2dfee" stroke="#b2dfee" cx="87.0923" cy="-666" rx="32.4942" ry="18"/>
<text text-anchor="middle" x="87.0923" y="-662.3" font-family="Times,serif" font-size="14.00" fill="#000000">object</text>
</g>
<!-- whole&#45;&gt;object -->
<g id="edge9" class="edge">
<title>whole&#45;&gt;object</title>
<path fill="none" stroke="#000000" d="M87.0923,-612.1686C87.0923,-619.869 87.0923,-629.0257 87.0923,-637.5834"/>
<polygon fill="#000000" stroke="#000000" points="83.5924,-637.5867 87.0923,-647.5867 90.5924,-637.5868 83.5924,-637.5867"/>
</g>
<!-- physical_entity -->
<g id="node11" class="node">
<title>physical_entity</title>
<ellipse fill="#b2dfee" stroke="#b2dfee" cx="87.0923" cy="-738" rx="64.189" ry="18"/>
<text text-anchor="middle" x="87.0923" y="-734.3" font-family="Times,serif" font-size="14.00" fill="#000000">physical_entity</text>
</g>
<!-- object&#45;&gt;physical_entity -->
<g id="edge10" class="edge">
<title>object&#45;&gt;physical_entity</title>
<path fill="none" stroke="#000000" d="M87.0923,-684.1686C87.0923,-691.869 87.0923,-701.0257 87.0923,-709.5834"/>
<polygon fill="#000000" stroke="#000000" points="83.5924,-709.5867 87.0923,-719.5867 90.5924,-709.5868 83.5924,-709.5867"/>
</g>
<!-- entity -->
<g id="node12" class="node">
<title>entity</title>
<ellipse fill="#b2dfee" stroke="#b2dfee" cx="87.0923" cy="-810" rx="30.5947" ry="18"/>
<text text-anchor="middle" x="87.0923" y="-806.3" font-family="Times,serif" font-size="14.00" fill="#000000">entity</text>
</g>
<!-- physical_entity&#45;&gt;entity -->
<g id="edge11" class="edge">
<title>physical_entity&#45;&gt;entity</title>
<path fill="none" stroke="#000000" d="M87.0923,-756.1686C87.0923,-763.869 87.0923,-773.0257 87.0923,-781.5834"/>
<polygon fill="#000000" stroke="#000000" points="83.5924,-781.5867 87.0923,-791.5867 90.5924,-781.5868 83.5924,-781.5867"/>
</g>
</g>
</svg>
