<?xml version="1.0" encoding="UTF-8" standalone="no"?>
<!DOCTYPE svg PUBLIC "-//W3C//DTD SVG 1.1//EN"
 "http://www.w3.org/Graphics/SVG/1.1/DTD/svg11.dtd">
<!-- Generated by graphviz version 2.40.1 (20161225.0304)
 -->
<!-- Title: unix Pages: 1 -->
<svg width="168pt" height="1052pt"
 viewBox="0.00 0.00 167.89 1052.00" xmlns="http://www.w3.org/2000/svg" xmlns:xlink="http://www.w3.org/1999/xlink">
<g id="graph0" class="graph" transform="scale(1 1) rotate(0) translate(4 1048)">
<title>unix</title>
<polygon fill="#ffffff" stroke="transparent" points="-4,4 -4,-1048 163.8858,-1048 163.8858,4 -4,4"/>
<!-- deer -->
<g id="node1" class="node">
<title>deer</title>
<ellipse fill="#b2dfee" stroke="#b2dfee" cx="79.9429" cy="-18" rx="27" ry="18"/>
<text text-anchor="middle" x="79.9429" y="-14.3" font-family="Times,serif" font-size="14.00" fill="#000000">deer</text>
</g>
<!-- ruminant -->
<g id="node2" class="node">
<title>ruminant</title>
<ellipse fill="#b2dfee" stroke="#b2dfee" cx="79.9429" cy="-90" rx="42.7926" ry="18"/>
<text text-anchor="middle" x="79.9429" y="-86.3" font-family="Times,serif" font-size="14.00" fill="#000000">ruminant</text>
</g>
<!-- deer&#45;&gt;ruminant -->
<g id="edge1" class="edge">
<title>deer&#45;&gt;ruminant</title>
<path fill="none" stroke="#000000" d="M79.9429,-36.1686C79.9429,-43.869 79.9429,-53.0257 79.9429,-61.5834"/>
<polygon fill="#000000" stroke="#000000" points="76.443,-61.5867 79.9429,-71.5867 83.443,-61.5868 76.443,-61.5867"/>
</g>
<!-- even&#45;toed_ungulate -->
<g id="node3" class="node">
<title>even&#45;toed_ungulate</title>
<ellipse fill="#b2dfee" stroke="#b2dfee" cx="79.9429" cy="-162" rx="79.8859" ry="18"/>
<text text-anchor="middle" x="79.9429" y="-158.3" font-family="Times,serif" font-size="14.00" fill="#000000">even&#45;toed_ungulate</text>
</g>
<!-- ruminant&#45;&gt;even&#45;toed_ungulate -->
<g id="edge2" class="edge">
<title>ruminant&#45;&gt;even&#45;toed_ungulate</title>
<path fill="none" stroke="#000000" d="M79.9429,-108.1686C79.9429,-115.869 79.9429,-125.0257 79.9429,-133.5834"/>
<polygon fill="#000000" stroke="#000000" points="76.443,-133.5867 79.9429,-143.5867 83.443,-133.5868 76.443,-133.5867"/>
</g>
<!-- ungulate -->
<g id="node4" class="node">
<title>ungulate</title>
<ellipse fill="#b2dfee" stroke="#b2dfee" cx="79.9429" cy="-234" rx="40.8928" ry="18"/>
<text text-anchor="middle" x="79.9429" y="-230.3" font-family="Times,serif" font-size="14.00" fill="#000000">ungulate</text>
</g>
<!-- even&#45;toed_ungulate&#45;&gt;ungulate -->
<g id="edge3" class="edge">
<title>even&#45;toed_ungulate&#45;&gt;ungulate</title>
<path fill="none" stroke="#000000" d="M79.9429,-180.1686C79.9429,-187.869 79.9429,-197.0257 79.9429,-205.5834"/>
<polygon fill="#000000" stroke="#000000" points="76.443,-205.5867 79.9429,-215.5867 83.443,-205.5868 76.443,-205.5867"/>
</g>
<!-- placental -->
<g id="node5" class="node">
<title>placental</title>
<ellipse fill="#b2dfee" stroke="#b2dfee" cx="79.9429" cy="-306" rx="42.4939" ry="18"/>
<text text-anchor="middle" x="79.9429" y="-302.3" font-family="Times,serif" font-size="14.00" fill="#000000">placental</text>
</g>
<!-- ungulate&#45;&gt;placental -->
<g id="edge4" class="edge">
<title>ungulate&#45;&gt;placental</title>
<path fill="none" stroke="#000000" d="M79.9429,-252.1686C79.9429,-259.869 79.9429,-269.0257 79.9429,-277.5834"/>
<polygon fill="#000000" stroke="#000000" points="76.443,-277.5867 79.9429,-287.5867 83.443,-277.5868 76.443,-277.5867"/>
</g>
<!-- mammal -->
<g id="node6" class="node">
<title>mammal</title>
<ellipse fill="#b2dfee" stroke="#b2dfee" cx="79.9429" cy="-378" rx="42.7926" ry="18"/>
<text text-anchor="middle" x="79.9429" y="-374.3" font-family="Times,serif" font-size="14.00" fill="#000000">mammal</text>
</g>
<!-- placental&#45;&gt;mammal -->
<g id="edge5" class="edge">
<title>placental&#45;&gt;mammal</title>
<path fill="none" stroke="#000000" d="M79.9429,-324.1686C79.9429,-331.869 79.9429,-341.0257 79.9429,-349.5834"/>
<polygon fill="#000000" stroke="#000000" points="76.443,-349.5867 79.9429,-359.5867 83.443,-349.5868 76.443,-349.5867"/>
</g>
<!-- vertebrate -->
<g id="node7" class="node">
<title>vertebrate</title>
<ellipse fill="#b2dfee" stroke="#b2dfee" cx="79.9429" cy="-450" rx="46.2923" ry="18"/>
<text text-anchor="middle" x="79.9429" y="-446.3" font-family="Times,serif" font-size="14.00" fill="#000000">vertebrate</text>
</g>
<!-- mammal&#45;&gt;vertebrate -->
<g id="edge6" class="edge">
<title>mammal&#45;&gt;vertebrate</title>
<path fill="none" stroke="#000000" d="M79.9429,-396.1686C79.9429,-403.869 79.9429,-413.0257 79.9429,-421.5834"/>
<polygon fill="#000000" stroke="#000000" points="76.443,-421.5867 79.9429,-431.5867 83.443,-421.5868 76.443,-421.5867"/>
</g>
<!-- chordate -->
<g id="node8" class="node">
<title>chordate</title>
<ellipse fill="#b2dfee" stroke="#b2dfee" cx="79.9429" cy="-522" rx="40.8928" ry="18"/>
<text text-anchor="middle" x="79.9429" y="-518.3" font-family="Times,serif" font-size="14.00" fill="#000000">chordate</text>
</g>
<!-- vertebrate&#45;&gt;chordate -->
<g id="edge7" class="edge">
<title>vertebrate&#45;&gt;chordate</title>
<path fill="none" stroke="#000000" d="M79.9429,-468.1686C79.9429,-475.869 79.9429,-485.0257 79.9429,-493.5834"/>
<polygon fill="#000000" stroke="#000000" points="76.443,-493.5867 79.9429,-503.5867 83.443,-493.5868 76.443,-493.5867"/>
</g>
<!-- animal -->
<g id="node9" class="node">
<title>animal</title>
<ellipse fill="#b2dfee" stroke="#b2dfee" cx="79.9429" cy="-594" rx="35.194" ry="18"/>
<text text-anchor="middle" x="79.9429" y="-590.3" font-family="Times,serif" font-size="14.00" fill="#000000">animal</text>
</g>
<!-- chordate&#45;&gt;animal -->
<g id="edge8" class="edge">
<title>chordate&#45;&gt;animal</title>
<path fill="none" stroke="#000000" d="M79.9429,-540.1686C79.9429,-547.869 79.9429,-557.0257 79.9429,-565.5834"/>
<polygon fill="#000000" stroke="#000000" points="76.443,-565.5867 79.9429,-575.5867 83.443,-565.5868 76.443,-565.5867"/>
</g>
<!-- organism -->
<g id="node10" class="node">
<title>organism</title>
<ellipse fill="#b2dfee" stroke="#b2dfee" cx="79.9429" cy="-666" rx="44.393" ry="18"/>
<text text-anchor="middle" x="79.9429" y="-662.3" font-family="Times,serif" font-size="14.00" fill="#000000">organism</text>
</g>
<!-- animal&#45;&gt;organism -->
<g id="edge9" class="edge">
<title>animal&#45;&gt;organism</title>
<path fill="none" stroke="#000000" d="M79.9429,-612.1686C79.9429,-619.869 79.9429,-629.0257 79.9429,-637.5834"/>
<polygon fill="#000000" stroke="#000000" points="76.443,-637.5867 79.9429,-647.5867 83.443,-637.5868 76.443,-637.5867"/>
</g>
<!-- living_thing -->
<g id="node11" class="node">
<title>living_thing</title>
<ellipse fill="#b2dfee" stroke="#b2dfee" cx="79.9429" cy="-738" rx="53.8905" ry="18"/>
<text text-anchor="middle" x="79.9429" y="-734.3" font-family="Times,serif" font-size="14.00" fill="#000000">living_thing</text>
</g>
<!-- organism&#45;&gt;living_thing -->
<g id="edge10" class="edge">
<title>organism&#45;&gt;living_thing</title>
<path fill="none" stroke="#000000" d="M79.9429,-684.1686C79.9429,-691.869 79.9429,-701.0257 79.9429,-709.5834"/>
<polygon fill="#000000" stroke="#000000" points="76.443,-709.5867 79.9429,-719.5867 83.443,-709.5868 76.443,-709.5867"/>
</g>
<!-- whole -->
<g id="node12" class="node">
<title>whole</title>
<ellipse fill="#b2dfee" stroke="#b2dfee" cx="79.9429" cy="-810" rx="32.4942" ry="18"/>
<text text-anchor="middle" x="79.9429" y="-806.3" font-family="Times,serif" font-size="14.00" fill="#000000">whole</text>
</g>
<!-- living_thing&#45;&gt;whole -->
<g id="edge11" class="edge">
<title>living_thing&#45;&gt;whole</title>
<path fill="none" stroke="#000000" d="M79.9429,-756.1686C79.9429,-763.869 79.9429,-773.0257 79.9429,-781.5834"/>
<polygon fill="#000000" stroke="#000000" points="76.443,-781.5867 79.9429,-791.5867 83.443,-781.5868 76.443,-781.5867"/>
</g>
<!-- object -->
<g id="node13" class="node">
<title>object</title>
<ellipse fill="#b2dfee" stroke="#b2dfee" cx="79.9429" cy="-882" rx="32.4942" ry="18"/>
<text text-anchor="middle" x="79.9429" y="-878.3" font-family="Times,serif" font-size="14.00" fill="#000000">object</text>
</g>
<!-- whole&#45;&gt;object -->
<g id="edge12" class="edge">
<title>whole&#45;&gt;object</title>
<path fill="none" stroke="#000000" d="M79.9429,-828.1686C79.9429,-835.869 79.9429,-845.0257 79.9429,-853.5834"/>
<polygon fill="#000000" stroke="#000000" points="76.443,-853.5867 79.9429,-863.5867 83.443,-853.5868 76.443,-853.5867"/>
</g>
<!-- physical_entity -->
<g id="node14" class="node">
<title>physical_entity</title>
<ellipse fill="#b2dfee" stroke="#b2dfee" cx="79.9429" cy="-954" rx="64.189" ry="18"/>
<text text-anchor="middle" x="79.9429" y="-950.3" font-family="Times,serif" font-size="14.00" fill="#000000">physical_entity</text>
</g>
<!-- object&#45;&gt;physical_entity -->
<g id="edge13" class="edge">
<title>object&#45;&gt;physical_entity</title>
<path fill="none" stroke="#000000" d="M79.9429,-900.1686C79.9429,-907.869 79.9429,-917.0257 79.9429,-925.5834"/>
<polygon fill="#000000" stroke="#000000" points="76.443,-925.5867 79.9429,-935.5867 83.443,-925.5868 76.443,-925.5867"/>
</g>
<!-- entity -->
<g id="node15" class="node">
<title>entity</title>
<ellipse fill="#b2dfee" stroke="#b2dfee" cx="79.9429" cy="-1026" rx="30.5947" ry="18"/>
<text text-anchor="middle" x="79.9429" y="-1022.3" font-family="Times,serif" font-size="14.00" fill="#000000">entity</text>
</g>
<!-- physical_entity&#45;&gt;entity -->
<g id="edge14" class="edge">
<title>physical_entity&#45;&gt;entity</title>
<path fill="none" stroke="#000000" d="M79.9429,-972.1686C79.9429,-979.869 79.9429,-989.0257 79.9429,-997.5834"/>
<polygon fill="#000000" stroke="#000000" points="76.443,-997.5867 79.9429,-1007.5867 83.443,-997.5868 76.443,-997.5867"/>
</g>
</g>
</svg>
