<?xml version="1.0" encoding="UTF-8" standalone="no"?>
<!DOCTYPE svg PUBLIC "-//W3C//DTD SVG 1.1//EN"
 "http://www.w3.org/Graphics/SVG/1.1/DTD/svg11.dtd">
<!-- Generated by graphviz version 2.40.1 (20161225.0304)
 -->
<!-- Title: unix Pages: 1 -->
<svg width="258pt" height="980pt"
 viewBox="0.00 0.00 257.69 980.00" xmlns="http://www.w3.org/2000/svg" xmlns:xlink="http://www.w3.org/1999/xlink">
<g id="graph0" class="graph" transform="scale(1 1) rotate(0) translate(4 976)">
<title>unix</title>
<polygon fill="#ffffff" stroke="transparent" points="-4,4 -4,-976 253.6897,-976 253.6897,4 -4,4"/>
<!-- dog -->
<g id="node1" class="node">
<title>dog</title>
<ellipse fill="#b2dfee" stroke="#b2dfee" cx="111.1961" cy="-18" rx="27" ry="18"/>
<text text-anchor="middle" x="111.1961" y="-14.3" font-family="Times,serif" font-size="14.00" fill="#000000">dog</text>
</g>
<!-- canine -->
<g id="node2" class="node">
<title>canine</title>
<ellipse fill="#b2dfee" stroke="#b2dfee" cx="80.1961" cy="-90" rx="33.5952" ry="18"/>
<text text-anchor="middle" x="80.1961" y="-86.3" font-family="Times,serif" font-size="14.00" fill="#000000">canine</text>
</g>
<!-- dog&#45;&gt;canine -->
<g id="edge1" class="edge">
<title>dog&#45;&gt;canine</title>
<path fill="none" stroke="#000000" d="M103.6918,-35.4292C100.1276,-43.7073 95.7867,-53.7896 91.8104,-63.0248"/>
<polygon fill="#000000" stroke="#000000" points="88.5865,-61.6621 87.8466,-72.2311 95.0159,-64.4304 88.5865,-61.6621"/>
</g>
<!-- domestic_animal -->
<g id="node15" class="node">
<title>domestic_animal</title>
<ellipse fill="#b2dfee" stroke="#b2dfee" cx="178.1961" cy="-162" rx="71.4873" ry="18"/>
<text text-anchor="middle" x="178.1961" y="-158.3" font-family="Times,serif" font-size="14.00" fill="#000000">domestic_animal</text>
</g>
<!-- dog&#45;&gt;domestic_animal -->
<g id="edge14" class="edge">
<title>dog&#45;&gt;domestic_animal</title>
<path fill="none" stroke="#000000" d="M119.2778,-35.3698C130.7851,-60.1018 151.9993,-105.6966 165.5855,-134.8966"/>
<polygon fill="#000000" stroke="#000000" points="162.4836,-136.5267 169.8755,-144.1169 168.8302,-133.5737 162.4836,-136.5267"/>
</g>
<!-- carnivore -->
<g id="node3" class="node">
<title>carnivore</title>
<ellipse fill="#b2dfee" stroke="#b2dfee" cx="44.1961" cy="-162" rx="44.393" ry="18"/>
<text text-anchor="middle" x="44.1961" y="-158.3" font-family="Times,serif" font-size="14.00" fill="#000000">carnivore</text>
</g>
<!-- canine&#45;&gt;carnivore -->
<g id="edge2" class="edge">
<title>canine&#45;&gt;carnivore</title>
<path fill="none" stroke="#000000" d="M71.4815,-107.4292C67.3424,-115.7073 62.3013,-125.7896 57.6837,-135.0248"/>
<polygon fill="#000000" stroke="#000000" points="54.4222,-133.7216 53.0805,-144.2311 60.6832,-136.8521 54.4222,-133.7216"/>
</g>
<!-- placental -->
<g id="node4" class="node">
<title>placental</title>
<ellipse fill="#b2dfee" stroke="#b2dfee" cx="51.1961" cy="-234" rx="42.4939" ry="18"/>
<text text-anchor="middle" x="51.1961" y="-230.3" font-family="Times,serif" font-size="14.00" fill="#000000">placental</text>
</g>
<!-- carnivore&#45;&gt;placental -->
<g id="edge3" class="edge">
<title>carnivore&#45;&gt;placental</title>
<path fill="none" stroke="#000000" d="M45.9625,-180.1686C46.7111,-187.869 47.6014,-197.0257 48.4334,-205.5834"/>
<polygon fill="#000000" stroke="#000000" points="44.9546,-205.9724 49.4059,-215.5867 51.9217,-205.2949 44.9546,-205.9724"/>
</g>
<!-- mammal -->
<g id="node5" class="node">
<title>mammal</title>
<ellipse fill="#b2dfee" stroke="#b2dfee" cx="66.1961" cy="-306" rx="42.7926" ry="18"/>
<text text-anchor="middle" x="66.1961" y="-302.3" font-family="Times,serif" font-size="14.00" fill="#000000">mammal</text>
</g>
<!-- placental&#45;&gt;mammal -->
<g id="edge4" class="edge">
<title>placental&#45;&gt;mammal</title>
<path fill="none" stroke="#000000" d="M54.9812,-252.1686C56.5855,-259.869 58.4931,-269.0257 60.2759,-277.5834"/>
<polygon fill="#000000" stroke="#000000" points="56.8939,-278.5108 62.36,-287.5867 63.7468,-277.0831 56.8939,-278.5108"/>
</g>
<!-- vertebrate -->
<g id="node6" class="node">
<title>vertebrate</title>
<ellipse fill="#b2dfee" stroke="#b2dfee" cx="96.1961" cy="-378" rx="46.2923" ry="18"/>
<text text-anchor="middle" x="96.1961" y="-374.3" font-family="Times,serif" font-size="14.00" fill="#000000">vertebrate</text>
</g>
<!-- mammal&#45;&gt;vertebrate -->
<g id="edge5" class="edge">
<title>mammal&#45;&gt;vertebrate</title>
<path fill="none" stroke="#000000" d="M73.6118,-323.7978C77.0013,-331.9325 81.0919,-341.7499 84.8552,-350.7819"/>
<polygon fill="#000000" stroke="#000000" points="81.6847,-352.2729 88.7617,-360.1575 88.1462,-349.5805 81.6847,-352.2729"/>
</g>
<!-- chordate -->
<g id="node7" class="node">
<title>chordate</title>
<ellipse fill="#b2dfee" stroke="#b2dfee" cx="101.1961" cy="-450" rx="40.8928" ry="18"/>
<text text-anchor="middle" x="101.1961" y="-446.3" font-family="Times,serif" font-size="14.00" fill="#000000">chordate</text>
</g>
<!-- vertebrate&#45;&gt;chordate -->
<g id="edge6" class="edge">
<title>vertebrate&#45;&gt;chordate</title>
<path fill="none" stroke="#000000" d="M97.4578,-396.1686C97.9925,-403.869 98.6284,-413.0257 99.2227,-421.5834"/>
<polygon fill="#000000" stroke="#000000" points="95.7329,-421.8533 99.9174,-431.5867 102.7161,-421.3683 95.7329,-421.8533"/>
</g>
<!-- animal -->
<g id="node8" class="node">
<title>animal</title>
<ellipse fill="#b2dfee" stroke="#b2dfee" cx="135.1961" cy="-522" rx="35.194" ry="18"/>
<text text-anchor="middle" x="135.1961" y="-518.3" font-family="Times,serif" font-size="14.00" fill="#000000">animal</text>
</g>
<!-- chordate&#45;&gt;animal -->
<g id="edge7" class="edge">
<title>chordate&#45;&gt;animal</title>
<path fill="none" stroke="#000000" d="M109.6006,-467.7978C113.512,-476.0808 118.2473,-486.1085 122.576,-495.2752"/>
<polygon fill="#000000" stroke="#000000" points="119.4533,-496.859 126.8883,-504.407 125.783,-493.8699 119.4533,-496.859"/>
</g>
<!-- organism -->
<g id="node9" class="node">
<title>organism</title>
<ellipse fill="#b2dfee" stroke="#b2dfee" cx="135.1961" cy="-594" rx="44.393" ry="18"/>
<text text-anchor="middle" x="135.1961" y="-590.3" font-family="Times,serif" font-size="14.00" fill="#000000">organism</text>
</g>
<!-- animal&#45;&gt;organism -->
<g id="edge8" class="edge">
<title>animal&#45;&gt;organism</title>
<path fill="none" stroke="#000000" d="M135.1961,-540.1686C135.1961,-547.869 135.1961,-557.0257 135.1961,-565.5834"/>
<polygon fill="#000000" stroke="#000000" points="131.6962,-565.5867 135.1961,-575.5867 138.6962,-565.5868 131.6962,-565.5867"/>
</g>
<!-- living_thing -->
<g id="node10" class="node">
<title>living_thing</title>
<ellipse fill="#b2dfee" stroke="#b2dfee" cx="135.1961" cy="-666" rx="53.8905" ry="18"/>
<text text-anchor="middle" x="135.1961" y="-662.3" font-family="Times,serif" font-size="14.00" fill="#000000">living_thing</text>
</g>
<!-- organism&#45;&gt;living_thing -->
<g id="edge9" class="edge">
<title>organism&#45;&gt;living_thing</title>
<path fill="none" stroke="#000000" d="M135.1961,-612.1686C135.1961,-619.869 135.1961,-629.0257 135.1961,-637.5834"/>
<polygon fill="#000000" stroke="#000000" points="131.6962,-637.5867 135.1961,-647.5867 138.6962,-637.5868 131.6962,-637.5867"/>
</g>
<!-- whole -->
<g id="node11" class="node">
<title>whole</title>
<ellipse fill="#b2dfee" stroke="#b2dfee" cx="135.1961" cy="-738" rx="32.4942" ry="18"/>
<text text-anchor="middle" x="135.1961" y="-734.3" font-family="Times,serif" font-size="14.00" fill="#000000">whole</text>
</g>
<!-- living_thing&#45;&gt;whole -->
<g id="edge10" class="edge">
<title>living_thing&#45;&gt;whole</title>
<path fill="none" stroke="#000000" d="M135.1961,-684.1686C135.1961,-691.869 135.1961,-701.0257 135.1961,-709.5834"/>
<polygon fill="#000000" stroke="#000000" points="131.6962,-709.5867 135.1961,-719.5867 138.6962,-709.5868 131.6962,-709.5867"/>
</g>
<!-- object -->
<g id="node12" class="node">
<title>object</title>
<ellipse fill="#b2dfee" stroke="#b2dfee" cx="135.1961" cy="-810" rx="32.4942" ry="18"/>
<text text-anchor="middle" x="135.1961" y="-806.3" font-family="Times,serif" font-size="14.00" fill="#000000">object</text>
</g>
<!-- whole&#45;&gt;object -->
<g id="edge11" class="edge">
<title>whole&#45;&gt;object</title>
<path fill="none" stroke="#000000" d="M135.1961,-756.1686C135.1961,-763.869 135.1961,-773.0257 135.1961,-781.5834"/>
<polygon fill="#000000" stroke="#000000" points="131.6962,-781.5867 135.1961,-791.5867 138.6962,-781.5868 131.6962,-781.5867"/>
</g>
<!-- physical_entity -->
<g id="node13" class="node">
<title>physical_entity</title>
<ellipse fill="#b2dfee" stroke="#b2dfee" cx="135.1961" cy="-882" rx="64.189" ry="18"/>
<text text-anchor="middle" x="135.1961" y="-878.3" font-family="Times,serif" font-size="14.00" fill="#000000">physical_entity</text>
</g>
<!-- object&#45;&gt;physical_entity -->
<g id="edge12" class="edge">
<title>object&#45;&gt;physical_entity</title>
<path fill="none" stroke="#000000" d="M135.1961,-828.1686C135.1961,-835.869 135.1961,-845.0257 135.1961,-853.5834"/>
<polygon fill="#000000" stroke="#000000" points="131.6962,-853.5867 135.1961,-863.5867 138.6962,-853.5868 131.6962,-853.5867"/>
</g>
<!-- entity -->
<g id="node14" class="node">
<title>entity</title>
<ellipse fill="#b2dfee" stroke="#b2dfee" cx="135.1961" cy="-954" rx="30.5947" ry="18"/>
<text text-anchor="middle" x="135.1961" y="-950.3" font-family="Times,serif" font-size="14.00" fill="#000000">entity</text>
</g>
<!-- physical_entity&#45;&gt;entity -->
<g id="edge13" class="edge">
<title>physical_entity&#45;&gt;entity</title>
<path fill="none" stroke="#000000" d="M135.1961,-900.1686C135.1961,-907.869 135.1961,-917.0257 135.1961,-925.5834"/>
<polygon fill="#000000" stroke="#000000" points="131.6962,-925.5867 135.1961,-935.5867 138.6962,-925.5868 131.6962,-925.5867"/>
</g>
<!-- domestic_animal&#45;&gt;animal -->
<g id="edge15" class="edge">
<title>domestic_animal&#45;&gt;animal</title>
<path fill="none" stroke="#000000" d="M177.3673,-180.1809C176.1957,-207.4915 174.1961,-260.7325 174.1961,-306 174.1961,-306 174.1961,-306 174.1961,-378 174.1961,-419.9358 158.5958,-466.4271 147.1284,-494.937"/>
<polygon fill="#000000" stroke="#000000" points="143.8705,-493.6562 143.2769,-504.2344 150.3376,-496.3352 143.8705,-493.6562"/>
</g>
</g>
</svg>
