<?xml version="1.0" encoding="UTF-8" standalone="no"?>
<!DOCTYPE svg PUBLIC "-//W3C//DTD SVG 1.1//EN"
 "http://www.w3.org/Graphics/SVG/1.1/DTD/svg11.dtd">
<!-- Generated by graphviz version 2.40.1 (20161225.0304)
 -->
<!-- Title: unix Pages: 1 -->
<svg width="137pt" height="548pt"
 viewBox="0.00 0.00 136.69 548.00" xmlns="http://www.w3.org/2000/svg" xmlns:xlink="http://www.w3.org/1999/xlink">
<g id="graph0" class="graph" transform="scale(1 1) rotate(0) translate(4 544)">
<title>unix</title>
<polygon fill="#ffffff" stroke="transparent" points="-4,4 -4,-544 132.6886,-544 132.6886,4 -4,4"/>
<!-- eye -->
<g id="node1" class="node">
<title>eye</title>
<ellipse fill="#b2dfee" stroke="#b2dfee" cx="64.3443" cy="-18" rx="27" ry="18"/>
<text text-anchor="middle" x="64.3443" y="-14.3" font-family="Times,serif" font-size="14.00" fill="#000000">eye</text>
</g>
<!-- sense_organ -->
<g id="node2" class="node">
<title>sense_organ</title>
<ellipse fill="#b2dfee" stroke="#b2dfee" cx="64.3443" cy="-90" rx="53.8905" ry="18"/>
<text text-anchor="middle" x="64.3443" y="-86.3" font-family="Times,serif" font-size="14.00" fill="#000000">sense_organ</text>
</g>
<!-- eye&#45;&gt;sense_organ -->
<g id="edge1" class="edge">
<title>eye&#45;&gt;sense_organ</title>
<path fill="none" stroke="#000000" d="M64.3443,-36.1686C64.3443,-43.869 64.3443,-53.0257 64.3443,-61.5834"/>
<polygon fill="#000000" stroke="#000000" points="60.8444,-61.5867 64.3443,-71.5867 67.8444,-61.5868 60.8444,-61.5867"/>
</g>
<!-- organ -->
<g id="node3" class="node">
<title>organ</title>
<ellipse fill="#b2dfee" stroke="#b2dfee" cx="64.3443" cy="-162" rx="30.5947" ry="18"/>
<text text-anchor="middle" x="64.3443" y="-158.3" font-family="Times,serif" font-size="14.00" fill="#000000">organ</text>
</g>
<!-- sense_organ&#45;&gt;organ -->
<g id="edge2" class="edge">
<title>sense_organ&#45;&gt;organ</title>
<path fill="none" stroke="#000000" d="M64.3443,-108.1686C64.3443,-115.869 64.3443,-125.0257 64.3443,-133.5834"/>
<polygon fill="#000000" stroke="#000000" points="60.8444,-133.5867 64.3443,-143.5867 67.8444,-133.5868 60.8444,-133.5867"/>
</g>
<!-- body_part -->
<g id="node4" class="node">
<title>body_part</title>
<ellipse fill="#b2dfee" stroke="#b2dfee" cx="64.3443" cy="-234" rx="46.2923" ry="18"/>
<text text-anchor="middle" x="64.3443" y="-230.3" font-family="Times,serif" font-size="14.00" fill="#000000">body_part</text>
</g>
<!-- organ&#45;&gt;body_part -->
<g id="edge3" class="edge">
<title>organ&#45;&gt;body_part</title>
<path fill="none" stroke="#000000" d="M64.3443,-180.1686C64.3443,-187.869 64.3443,-197.0257 64.3443,-205.5834"/>
<polygon fill="#000000" stroke="#000000" points="60.8444,-205.5867 64.3443,-215.5867 67.8444,-205.5868 60.8444,-205.5867"/>
</g>
<!-- part -->
<g id="node5" class="node">
<title>part</title>
<ellipse fill="#b2dfee" stroke="#b2dfee" cx="64.3443" cy="-306" rx="27" ry="18"/>
<text text-anchor="middle" x="64.3443" y="-302.3" font-family="Times,serif" font-size="14.00" fill="#000000">part</text>
</g>
<!-- body_part&#45;&gt;part -->
<g id="edge4" class="edge">
<title>body_part&#45;&gt;part</title>
<path fill="none" stroke="#000000" d="M64.3443,-252.1686C64.3443,-259.869 64.3443,-269.0257 64.3443,-277.5834"/>
<polygon fill="#000000" stroke="#000000" points="60.8444,-277.5867 64.3443,-287.5867 67.8444,-277.5868 60.8444,-277.5867"/>
</g>
<!-- thing -->
<g id="node6" class="node">
<title>thing</title>
<ellipse fill="#b2dfee" stroke="#b2dfee" cx="64.3443" cy="-378" rx="28.6953" ry="18"/>
<text text-anchor="middle" x="64.3443" y="-374.3" font-family="Times,serif" font-size="14.00" fill="#000000">thing</text>
</g>
<!-- part&#45;&gt;thing -->
<g id="edge5" class="edge">
<title>part&#45;&gt;thing</title>
<path fill="none" stroke="#000000" d="M64.3443,-324.1686C64.3443,-331.869 64.3443,-341.0257 64.3443,-349.5834"/>
<polygon fill="#000000" stroke="#000000" points="60.8444,-349.5867 64.3443,-359.5867 67.8444,-349.5868 60.8444,-349.5867"/>
</g>
<!-- physical_entity -->
<g id="node7" class="node">
<title>physical_entity</title>
<ellipse fill="#b2dfee" stroke="#b2dfee" cx="64.3443" cy="-450" rx="64.189" ry="18"/>
<text text-anchor="middle" x="64.3443" y="-446.3" font-family="Times,serif" font-size="14.00" fill="#000000">physical_entity</text>
</g>
<!-- thing&#45;&gt;physical_entity -->
<g id="edge6" class="edge">
<title>thing&#45;&gt;physical_entity</title>
<path fill="none" stroke="#000000" d="M64.3443,-396.1686C64.3443,-403.869 64.3443,-413.0257 64.3443,-421.5834"/>
<polygon fill="#000000" stroke="#000000" points="60.8444,-421.5867 64.3443,-431.5867 67.8444,-421.5868 60.8444,-421.5867"/>
</g>
<!-- entity -->
<g id="node8" class="node">
<title>entity</title>
<ellipse fill="#b2dfee" stroke="#b2dfee" cx="64.3443" cy="-522" rx="30.5947" ry="18"/>
<text text-anchor="middle" x="64.3443" y="-518.3" font-family="Times,serif" font-size="14.00" fill="#000000">entity</text>
</g>
<!-- physical_entity&#45;&gt;entity -->
<g id="edge7" class="edge">
<title>physical_entity&#45;&gt;entity</title>
<path fill="none" stroke="#000000" d="M64.3443,-468.1686C64.3443,-475.869 64.3443,-485.0257 64.3443,-493.5834"/>
<polygon fill="#000000" stroke="#000000" points="60.8444,-493.5867 64.3443,-503.5867 67.8444,-493.5868 60.8444,-493.5867"/>
</g>
</g>
</svg>
