<?xml version="1.0" encoding="UTF-8" standalone="no"?>
<!DOCTYPE svg PUBLIC "-//W3C//DTD SVG 1.1//EN"
 "http://www.w3.org/Graphics/SVG/1.1/DTD/svg11.dtd">
<!-- Generated by graphviz version 2.40.1 (20161225.0304)
 -->
<!-- Title: unix Pages: 1 -->
<svg width="137pt" height="764pt"
 viewBox="0.00 0.00 136.69 764.00" xmlns="http://www.w3.org/2000/svg" xmlns:xlink="http://www.w3.org/1999/xlink">
<g id="graph0" class="graph" transform="scale(1 1) rotate(0) translate(4 760)">
<title>unix</title>
<polygon fill="#ffffff" stroke="transparent" points="-4,4 -4,-760 132.6886,-760 132.6886,4 -4,4"/>
<!-- frog -->
<g id="node1" class="node">
<title>frog</title>
<ellipse fill="#b2dfee" stroke="#b2dfee" cx="64.3443" cy="-18" rx="27" ry="18"/>
<text text-anchor="middle" x="64.3443" y="-14.3" font-family="Times,serif" font-size="14.00" fill="#000000">frog</text>
</g>
<!-- amphibian -->
<g id="node2" class="node">
<title>amphibian</title>
<ellipse fill="#b2dfee" stroke="#b2dfee" cx="64.3443" cy="-90" rx="48.1917" ry="18"/>
<text text-anchor="middle" x="64.3443" y="-86.3" font-family="Times,serif" font-size="14.00" fill="#000000">amphibian</text>
</g>
<!-- frog&#45;&gt;amphibian -->
<g id="edge1" class="edge">
<title>frog&#45;&gt;amphibian</title>
<path fill="none" stroke="#000000" d="M64.3443,-36.1686C64.3443,-43.869 64.3443,-53.0257 64.3443,-61.5834"/>
<polygon fill="#000000" stroke="#000000" points="60.8444,-61.5867 64.3443,-71.5867 67.8444,-61.5868 60.8444,-61.5867"/>
</g>
<!-- vertebrate -->
<g id="node3" class="node">
<title>vertebrate</title>
<ellipse fill="#b2dfee" stroke="#b2dfee" cx="64.3443" cy="-162" rx="46.2923" ry="18"/>
<text text-anchor="middle" x="64.3443" y="-158.3" font-family="Times,serif" font-size="14.00" fill="#000000">vertebrate</text>
</g>
<!-- amphibian&#45;&gt;vertebrate -->
<g id="edge2" class="edge">
<title>amphibian&#45;&gt;vertebrate</title>
<path fill="none" stroke="#000000" d="M64.3443,-108.1686C64.3443,-115.869 64.3443,-125.0257 64.3443,-133.5834"/>
<polygon fill="#000000" stroke="#000000" points="60.8444,-133.5867 64.3443,-143.5867 67.8444,-133.5868 60.8444,-133.5867"/>
</g>
<!-- chordate -->
<g id="node4" class="node">
<title>chordate</title>
<ellipse fill="#b2dfee" stroke="#b2dfee" cx="64.3443" cy="-234" rx="40.8928" ry="18"/>
<text text-anchor="middle" x="64.3443" y="-230.3" font-family="Times,serif" font-size="14.00" fill="#000000">chordate</text>
</g>
<!-- vertebrate&#45;&gt;chordate -->
<g id="edge3" class="edge">
<title>vertebrate&#45;&gt;chordate</title>
<path fill="none" stroke="#000000" d="M64.3443,-180.1686C64.3443,-187.869 64.3443,-197.0257 64.3443,-205.5834"/>
<polygon fill="#000000" stroke="#000000" points="60.8444,-205.5867 64.3443,-215.5867 67.8444,-205.5868 60.8444,-205.5867"/>
</g>
<!-- animal -->
<g id="node5" class="node">
<title>animal</title>
<ellipse fill="#b2dfee" stroke="#b2dfee" cx="64.3443" cy="-306" rx="35.194" ry="18"/>
<text text-anchor="middle" x="64.3443" y="-302.3" font-family="Times,serif" font-size="14.00" fill="#000000">animal</text>
</g>
<!-- chordate&#45;&gt;animal -->
<g id="edge4" class="edge">
<title>chordate&#45;&gt;animal</title>
<path fill="none" stroke="#000000" d="M64.3443,-252.1686C64.3443,-259.869 64.3443,-269.0257 64.3443,-277.5834"/>
<polygon fill="#000000" stroke="#000000" points="60.8444,-277.5867 64.3443,-287.5867 67.8444,-277.5868 60.8444,-277.5867"/>
</g>
<!-- organism -->
<g id="node6" class="node">
<title>organism</title>
<ellipse fill="#b2dfee" stroke="#b2dfee" cx="64.3443" cy="-378" rx="44.393" ry="18"/>
<text text-anchor="middle" x="64.3443" y="-374.3" font-family="Times,serif" font-size="14.00" fill="#000000">organism</text>
</g>
<!-- animal&#45;&gt;organism -->
<g id="edge5" class="edge">
<title>animal&#45;&gt;organism</title>
<path fill="none" stroke="#000000" d="M64.3443,-324.1686C64.3443,-331.869 64.3443,-341.0257 64.3443,-349.5834"/>
<polygon fill="#000000" stroke="#000000" points="60.8444,-349.5867 64.3443,-359.5867 67.8444,-349.5868 60.8444,-349.5867"/>
</g>
<!-- living_thing -->
<g id="node7" class="node">
<title>living_thing</title>
<ellipse fill="#b2dfee" stroke="#b2dfee" cx="64.3443" cy="-450" rx="53.8905" ry="18"/>
<text text-anchor="middle" x="64.3443" y="-446.3" font-family="Times,serif" font-size="14.00" fill="#000000">living_thing</text>
</g>
<!-- organism&#45;&gt;living_thing -->
<g id="edge6" class="edge">
<title>organism&#45;&gt;living_thing</title>
<path fill="none" stroke="#000000" d="M64.3443,-396.1686C64.3443,-403.869 64.3443,-413.0257 64.3443,-421.5834"/>
<polygon fill="#000000" stroke="#000000" points="60.8444,-421.5867 64.3443,-431.5867 67.8444,-421.5868 60.8444,-421.5867"/>
</g>
<!-- whole -->
<g id="node8" class="node">
<title>whole</title>
<ellipse fill="#b2dfee" stroke="#b2dfee" cx="64.3443" cy="-522" rx="32.4942" ry="18"/>
<text text-anchor="middle" x="64.3443" y="-518.3" font-family="Times,serif" font-size="14.00" fill="#000000">whole</text>
</g>
<!-- living_thing&#45;&gt;whole -->
<g id="edge7" class="edge">
<title>living_thing&#45;&gt;whole</title>
<path fill="none" stroke="#000000" d="M64.3443,-468.1686C64.3443,-475.869 64.3443,-485.0257 64.3443,-493.5834"/>
<polygon fill="#000000" stroke="#000000" points="60.8444,-493.5867 64.3443,-503.5867 67.8444,-493.5868 60.8444,-493.5867"/>
</g>
<!-- object -->
<g id="node9" class="node">
<title>object</title>
<ellipse fill="#b2dfee" stroke="#b2dfee" cx="64.3443" cy="-594" rx="32.4942" ry="18"/>
<text text-anchor="middle" x="64.3443" y="-590.3" font-family="Times,serif" font-size="14.00" fill="#000000">object</text>
</g>
<!-- whole&#45;&gt;object -->
<g id="edge8" class="edge">
<title>whole&#45;&gt;object</title>
<path fill="none" stroke="#000000" d="M64.3443,-540.1686C64.3443,-547.869 64.3443,-557.0257 64.3443,-565.5834"/>
<polygon fill="#000000" stroke="#000000" points="60.8444,-565.5867 64.3443,-575.5867 67.8444,-565.5868 60.8444,-565.5867"/>
</g>
<!-- physical_entity -->
<g id="node10" class="node">
<title>physical_entity</title>
<ellipse fill="#b2dfee" stroke="#b2dfee" cx="64.3443" cy="-666" rx="64.189" ry="18"/>
<text text-anchor="middle" x="64.3443" y="-662.3" font-family="Times,serif" font-size="14.00" fill="#000000">physical_entity</text>
</g>
<!-- object&#45;&gt;physical_entity -->
<g id="edge9" class="edge">
<title>object&#45;&gt;physical_entity</title>
<path fill="none" stroke="#000000" d="M64.3443,-612.1686C64.3443,-619.869 64.3443,-629.0257 64.3443,-637.5834"/>
<polygon fill="#000000" stroke="#000000" points="60.8444,-637.5867 64.3443,-647.5867 67.8444,-637.5868 60.8444,-637.5867"/>
</g>
<!-- entity -->
<g id="node11" class="node">
<title>entity</title>
<ellipse fill="#b2dfee" stroke="#b2dfee" cx="64.3443" cy="-738" rx="30.5947" ry="18"/>
<text text-anchor="middle" x="64.3443" y="-734.3" font-family="Times,serif" font-size="14.00" fill="#000000">entity</text>
</g>
<!-- physical_entity&#45;&gt;entity -->
<g id="edge10" class="edge">
<title>physical_entity&#45;&gt;entity</title>
<path fill="none" stroke="#000000" d="M64.3443,-684.1686C64.3443,-691.869 64.3443,-701.0257 64.3443,-709.5834"/>
<polygon fill="#000000" stroke="#000000" points="60.8444,-709.5867 64.3443,-719.5867 67.8444,-709.5868 60.8444,-709.5867"/>
</g>
</g>
</svg>
