<?xml version="1.0" encoding="UTF-8" standalone="no"?>
<!DOCTYPE svg PUBLIC "-//W3C//DTD SVG 1.1//EN"
 "http://www.w3.org/Graphics/SVG/1.1/DTD/svg11.dtd">
<!-- Generated by graphviz version 2.40.1 (20161225.0304)
 -->
<!-- Title: unix Pages: 1 -->
<svg width="161pt" height="1052pt"
 viewBox="0.00 0.00 161.39 1052.00" xmlns="http://www.w3.org/2000/svg" xmlns:xlink="http://www.w3.org/1999/xlink">
<g id="graph0" class="graph" transform="scale(1 1) rotate(0) translate(4 1048)">
<title>unix</title>
<polygon fill="#ffffff" stroke="transparent" points="-4,4 -4,-1048 157.3864,-1048 157.3864,4 -4,4"/>
<!-- horse -->
<g id="node1" class="node">
<title>horse</title>
<ellipse fill="#b2dfee" stroke="#b2dfee" cx="76.6932" cy="-18" rx="29.795" ry="18"/>
<text text-anchor="middle" x="76.6932" y="-14.3" font-family="Times,serif" font-size="14.00" fill="#000000">horse</text>
</g>
<!-- equine -->
<g id="node2" class="node">
<title>equine</title>
<ellipse fill="#b2dfee" stroke="#b2dfee" cx="76.6932" cy="-90" rx="34.394" ry="18"/>
<text text-anchor="middle" x="76.6932" y="-86.3" font-family="Times,serif" font-size="14.00" fill="#000000">equine</text>
</g>
<!-- horse&#45;&gt;equine -->
<g id="edge1" class="edge">
<title>horse&#45;&gt;equine</title>
<path fill="none" stroke="#000000" d="M76.6932,-36.1686C76.6932,-43.869 76.6932,-53.0257 76.6932,-61.5834"/>
<polygon fill="#000000" stroke="#000000" points="73.1933,-61.5867 76.6932,-71.5867 80.1933,-61.5868 73.1933,-61.5867"/>
</g>
<!-- odd&#45;toed_ungulate -->
<g id="node3" class="node">
<title>odd&#45;toed_ungulate</title>
<ellipse fill="#b2dfee" stroke="#b2dfee" cx="76.6932" cy="-162" rx="76.8869" ry="18"/>
<text text-anchor="middle" x="76.6932" y="-158.3" font-family="Times,serif" font-size="14.00" fill="#000000">odd&#45;toed_ungulate</text>
</g>
<!-- equine&#45;&gt;odd&#45;toed_ungulate -->
<g id="edge2" class="edge">
<title>equine&#45;&gt;odd&#45;toed_ungulate</title>
<path fill="none" stroke="#000000" d="M76.6932,-108.1686C76.6932,-115.869 76.6932,-125.0257 76.6932,-133.5834"/>
<polygon fill="#000000" stroke="#000000" points="73.1933,-133.5867 76.6932,-143.5867 80.1933,-133.5868 73.1933,-133.5867"/>
</g>
<!-- ungulate -->
<g id="node4" class="node">
<title>ungulate</title>
<ellipse fill="#b2dfee" stroke="#b2dfee" cx="76.6932" cy="-234" rx="40.8928" ry="18"/>
<text text-anchor="middle" x="76.6932" y="-230.3" font-family="Times,serif" font-size="14.00" fill="#000000">ungulate</text>
</g>
<!-- odd&#45;toed_ungulate&#45;&gt;ungulate -->
<g id="edge3" class="edge">
<title>odd&#45;toed_ungulate&#45;&gt;ungulate</title>
<path fill="none" stroke="#000000" d="M76.6932,-180.1686C76.6932,-187.869 76.6932,-197.0257 76.6932,-205.5834"/>
<polygon fill="#000000" stroke="#000000" points="73.1933,-205.5867 76.6932,-215.5867 80.1933,-205.5868 73.1933,-205.5867"/>
</g>
<!-- placental -->
<g id="node5" class="node">
<title>placental</title>
<ellipse fill="#b2dfee" stroke="#b2dfee" cx="76.6932" cy="-306" rx="42.4939" ry="18"/>
<text text-anchor="middle" x="76.6932" y="-302.3" font-family="Times,serif" font-size="14.00" fill="#000000">placental</text>
</g>
<!-- ungulate&#45;&gt;placental -->
<g id="edge4" class="edge">
<title>ungulate&#45;&gt;placental</title>
<path fill="none" stroke="#000000" d="M76.6932,-252.1686C76.6932,-259.869 76.6932,-269.0257 76.6932,-277.5834"/>
<polygon fill="#000000" stroke="#000000" points="73.1933,-277.5867 76.6932,-287.5867 80.1933,-277.5868 73.1933,-277.5867"/>
</g>
<!-- mammal -->
<g id="node6" class="node">
<title>mammal</title>
<ellipse fill="#b2dfee" stroke="#b2dfee" cx="76.6932" cy="-378" rx="42.7926" ry="18"/>
<text text-anchor="middle" x="76.6932" y="-374.3" font-family="Times,serif" font-size="14.00" fill="#000000">mammal</text>
</g>
<!-- placental&#45;&gt;mammal -->
<g id="edge5" class="edge">
<title>placental&#45;&gt;mammal</title>
<path fill="none" stroke="#000000" d="M76.6932,-324.1686C76.6932,-331.869 76.6932,-341.0257 76.6932,-349.5834"/>
<polygon fill="#000000" stroke="#000000" points="73.1933,-349.5867 76.6932,-359.5867 80.1933,-349.5868 73.1933,-349.5867"/>
</g>
<!-- vertebrate -->
<g id="node7" class="node">
<title>vertebrate</title>
<ellipse fill="#b2dfee" stroke="#b2dfee" cx="76.6932" cy="-450" rx="46.2923" ry="18"/>
<text text-anchor="middle" x="76.6932" y="-446.3" font-family="Times,serif" font-size="14.00" fill="#000000">vertebrate</text>
</g>
<!-- mammal&#45;&gt;vertebrate -->
<g id="edge6" class="edge">
<title>mammal&#45;&gt;vertebrate</title>
<path fill="none" stroke="#000000" d="M76.6932,-396.1686C76.6932,-403.869 76.6932,-413.0257 76.6932,-421.5834"/>
<polygon fill="#000000" stroke="#000000" points="73.1933,-421.5867 76.6932,-431.5867 80.1933,-421.5868 73.1933,-421.5867"/>
</g>
<!-- chordate -->
<g id="node8" class="node">
<title>chordate</title>
<ellipse fill="#b2dfee" stroke="#b2dfee" cx="76.6932" cy="-522" rx="40.8928" ry="18"/>
<text text-anchor="middle" x="76.6932" y="-518.3" font-family="Times,serif" font-size="14.00" fill="#000000">chordate</text>
</g>
<!-- vertebrate&#45;&gt;chordate -->
<g id="edge7" class="edge">
<title>vertebrate&#45;&gt;chordate</title>
<path fill="none" stroke="#000000" d="M76.6932,-468.1686C76.6932,-475.869 76.6932,-485.0257 76.6932,-493.5834"/>
<polygon fill="#000000" stroke="#000000" points="73.1933,-493.5867 76.6932,-503.5867 80.1933,-493.5868 73.1933,-493.5867"/>
</g>
<!-- animal -->
<g id="node9" class="node">
<title>animal</title>
<ellipse fill="#b2dfee" stroke="#b2dfee" cx="76.6932" cy="-594" rx="35.194" ry="18"/>
<text text-anchor="middle" x="76.6932" y="-590.3" font-family="Times,serif" font-size="14.00" fill="#000000">animal</text>
</g>
<!-- chordate&#45;&gt;animal -->
<g id="edge8" class="edge">
<title>chordate&#45;&gt;animal</title>
<path fill="none" stroke="#000000" d="M76.6932,-540.1686C76.6932,-547.869 76.6932,-557.0257 76.6932,-565.5834"/>
<polygon fill="#000000" stroke="#000000" points="73.1933,-565.5867 76.6932,-575.5867 80.1933,-565.5868 73.1933,-565.5867"/>
</g>
<!-- organism -->
<g id="node10" class="node">
<title>organism</title>
<ellipse fill="#b2dfee" stroke="#b2dfee" cx="76.6932" cy="-666" rx="44.393" ry="18"/>
<text text-anchor="middle" x="76.6932" y="-662.3" font-family="Times,serif" font-size="14.00" fill="#000000">organism</text>
</g>
<!-- animal&#45;&gt;organism -->
<g id="edge9" class="edge">
<title>animal&#45;&gt;organism</title>
<path fill="none" stroke="#000000" d="M76.6932,-612.1686C76.6932,-619.869 76.6932,-629.0257 76.6932,-637.5834"/>
<polygon fill="#000000" stroke="#000000" points="73.1933,-637.5867 76.6932,-647.5867 80.1933,-637.5868 73.1933,-637.5867"/>
</g>
<!-- living_thing -->
<g id="node11" class="node">
<title>living_thing</title>
<ellipse fill="#b2dfee" stroke="#b2dfee" cx="76.6932" cy="-738" rx="53.8905" ry="18"/>
<text text-anchor="middle" x="76.6932" y="-734.3" font-family="Times,serif" font-size="14.00" fill="#000000">living_thing</text>
</g>
<!-- organism&#45;&gt;living_thing -->
<g id="edge10" class="edge">
<title>organism&#45;&gt;living_thing</title>
<path fill="none" stroke="#000000" d="M76.6932,-684.1686C76.6932,-691.869 76.6932,-701.0257 76.6932,-709.5834"/>
<polygon fill="#000000" stroke="#000000" points="73.1933,-709.5867 76.6932,-719.5867 80.1933,-709.5868 73.1933,-709.5867"/>
</g>
<!-- whole -->
<g id="node12" class="node">
<title>whole</title>
<ellipse fill="#b2dfee" stroke="#b2dfee" cx="76.6932" cy="-810" rx="32.4942" ry="18"/>
<text text-anchor="middle" x="76.6932" y="-806.3" font-family="Times,serif" font-size="14.00" fill="#000000">whole</text>
</g>
<!-- living_thing&#45;&gt;whole -->
<g id="edge11" class="edge">
<title>living_thing&#45;&gt;whole</title>
<path fill="none" stroke="#000000" d="M76.6932,-756.1686C76.6932,-763.869 76.6932,-773.0257 76.6932,-781.5834"/>
<polygon fill="#000000" stroke="#000000" points="73.1933,-781.5867 76.6932,-791.5867 80.1933,-781.5868 73.1933,-781.5867"/>
</g>
<!-- object -->
<g id="node13" class="node">
<title>object</title>
<ellipse fill="#b2dfee" stroke="#b2dfee" cx="76.6932" cy="-882" rx="32.4942" ry="18"/>
<text text-anchor="middle" x="76.6932" y="-878.3" font-family="Times,serif" font-size="14.00" fill="#000000">object</text>
</g>
<!-- whole&#45;&gt;object -->
<g id="edge12" class="edge">
<title>whole&#45;&gt;object</title>
<path fill="none" stroke="#000000" d="M76.6932,-828.1686C76.6932,-835.869 76.6932,-845.0257 76.6932,-853.5834"/>
<polygon fill="#000000" stroke="#000000" points="73.1933,-853.5867 76.6932,-863.5867 80.1933,-853.5868 73.1933,-853.5867"/>
</g>
<!-- physical_entity -->
<g id="node14" class="node">
<title>physical_entity</title>
<ellipse fill="#b2dfee" stroke="#b2dfee" cx="76.6932" cy="-954" rx="64.189" ry="18"/>
<text text-anchor="middle" x="76.6932" y="-950.3" font-family="Times,serif" font-size="14.00" fill="#000000">physical_entity</text>
</g>
<!-- object&#45;&gt;physical_entity -->
<g id="edge13" class="edge">
<title>object&#45;&gt;physical_entity</title>
<path fill="none" stroke="#000000" d="M76.6932,-900.1686C76.6932,-907.869 76.6932,-917.0257 76.6932,-925.5834"/>
<polygon fill="#000000" stroke="#000000" points="73.1933,-925.5867 76.6932,-935.5867 80.1933,-925.5868 73.1933,-925.5867"/>
</g>
<!-- entity -->
<g id="node15" class="node">
<title>entity</title>
<ellipse fill="#b2dfee" stroke="#b2dfee" cx="76.6932" cy="-1026" rx="30.5947" ry="18"/>
<text text-anchor="middle" x="76.6932" y="-1022.3" font-family="Times,serif" font-size="14.00" fill="#000000">entity</text>
</g>
<!-- physical_entity&#45;&gt;entity -->
<g id="edge14" class="edge">
<title>physical_entity&#45;&gt;entity</title>
<path fill="none" stroke="#000000" d="M76.6932,-972.1686C76.6932,-979.869 76.6932,-989.0257 76.6932,-997.5834"/>
<polygon fill="#000000" stroke="#000000" points="73.1933,-997.5867 76.6932,-1007.5867 80.1933,-997.5868 73.1933,-997.5867"/>
</g>
</g>
</svg>
