<?xml version="1.0" encoding="UTF-8" standalone="no"?>
<!DOCTYPE svg PUBLIC "-//W3C//DTD SVG 1.1//EN"
 "http://www.w3.org/Graphics/SVG/1.1/DTD/svg11.dtd">
<!-- Generated by graphviz version 2.40.1 (20161225.0304)
 -->
<!-- Title: unix Pages: 1 -->
<svg width="146pt" height="548pt"
 viewBox="0.00 0.00 145.79 548.00" xmlns="http://www.w3.org/2000/svg" xmlns:xlink="http://www.w3.org/1999/xlink">
<g id="graph0" class="graph" transform="scale(1 1) rotate(0) translate(4 544)">
<title>unix</title>
<polygon fill="#ffffff" stroke="transparent" points="-4,4 -4,-544 141.7878,-544 141.7878,4 -4,4"/>
<!-- red -->
<g id="node1" class="node">
<title>red</title>
<ellipse fill="#b2dfee" stroke="#b2dfee" cx="68.8939" cy="-18" rx="27" ry="18"/>
<text text-anchor="middle" x="68.8939" y="-14.3" font-family="Times,serif" font-size="14.00" fill="#000000">red</text>
</g>
<!-- chromatic_color -->
<g id="node2" class="node">
<title>chromatic_color</title>
<ellipse fill="#b2dfee" stroke="#b2dfee" cx="68.8939" cy="-90" rx="68.7879" ry="18"/>
<text text-anchor="middle" x="68.8939" y="-86.3" font-family="Times,serif" font-size="14.00" fill="#000000">chromatic_color</text>
</g>
<!-- red&#45;&gt;chromatic_color -->
<g id="edge1" class="edge">
<title>red&#45;&gt;chromatic_color</title>
<path fill="none" stroke="#000000" d="M68.8939,-36.1686C68.8939,-43.869 68.8939,-53.0257 68.8939,-61.5834"/>
<polygon fill="#000000" stroke="#000000" points="65.394,-61.5867 68.8939,-71.5867 72.394,-61.5868 65.394,-61.5867"/>
</g>
<!-- color -->
<g id="node3" class="node">
<title>color</title>
<ellipse fill="#b2dfee" stroke="#b2dfee" cx="68.8939" cy="-162" rx="28.6953" ry="18"/>
<text text-anchor="middle" x="68.8939" y="-158.3" font-family="Times,serif" font-size="14.00" fill="#000000">color</text>
</g>
<!-- chromatic_color&#45;&gt;color -->
<g id="edge2" class="edge">
<title>chromatic_color&#45;&gt;color</title>
<path fill="none" stroke="#000000" d="M68.8939,-108.1686C68.8939,-115.869 68.8939,-125.0257 68.8939,-133.5834"/>
<polygon fill="#000000" stroke="#000000" points="65.394,-133.5867 68.8939,-143.5867 72.394,-133.5868 65.394,-133.5867"/>
</g>
<!-- visual_property -->
<g id="node4" class="node">
<title>visual_property</title>
<ellipse fill="#b2dfee" stroke="#b2dfee" cx="68.8939" cy="-234" rx="65.7887" ry="18"/>
<text text-anchor="middle" x="68.8939" y="-230.3" font-family="Times,serif" font-size="14.00" fill="#000000">visual_property</text>
</g>
<!-- color&#45;&gt;visual_property -->
<g id="edge3" class="edge">
<title>color&#45;&gt;visual_property</title>
<path fill="none" stroke="#000000" d="M68.8939,-180.1686C68.8939,-187.869 68.8939,-197.0257 68.8939,-205.5834"/>
<polygon fill="#000000" stroke="#000000" points="65.394,-205.5867 68.8939,-215.5867 72.394,-205.5868 65.394,-205.5867"/>
</g>
<!-- property -->
<g id="node5" class="node">
<title>property</title>
<ellipse fill="#b2dfee" stroke="#b2dfee" cx="68.8939" cy="-306" rx="40.0939" ry="18"/>
<text text-anchor="middle" x="68.8939" y="-302.3" font-family="Times,serif" font-size="14.00" fill="#000000">property</text>
</g>
<!-- visual_property&#45;&gt;property -->
<g id="edge4" class="edge">
<title>visual_property&#45;&gt;property</title>
<path fill="none" stroke="#000000" d="M68.8939,-252.1686C68.8939,-259.869 68.8939,-269.0257 68.8939,-277.5834"/>
<polygon fill="#000000" stroke="#000000" points="65.394,-277.5867 68.8939,-287.5867 72.394,-277.5868 65.394,-277.5867"/>
</g>
<!-- attribute -->
<g id="node6" class="node">
<title>attribute</title>
<ellipse fill="#b2dfee" stroke="#b2dfee" cx="68.8939" cy="-378" rx="40.0939" ry="18"/>
<text text-anchor="middle" x="68.8939" y="-374.3" font-family="Times,serif" font-size="14.00" fill="#000000">attribute</text>
</g>
<!-- property&#45;&gt;attribute -->
<g id="edge5" class="edge">
<title>property&#45;&gt;attribute</title>
<path fill="none" stroke="#000000" d="M68.8939,-324.1686C68.8939,-331.869 68.8939,-341.0257 68.8939,-349.5834"/>
<polygon fill="#000000" stroke="#000000" points="65.394,-349.5867 68.8939,-359.5867 72.394,-349.5868 65.394,-349.5867"/>
</g>
<!-- abstraction -->
<g id="node7" class="node">
<title>abstraction</title>
<ellipse fill="#b2dfee" stroke="#b2dfee" cx="68.8939" cy="-450" rx="49.2915" ry="18"/>
<text text-anchor="middle" x="68.8939" y="-446.3" font-family="Times,serif" font-size="14.00" fill="#000000">abstraction</text>
</g>
<!-- attribute&#45;&gt;abstraction -->
<g id="edge6" class="edge">
<title>attribute&#45;&gt;abstraction</title>
<path fill="none" stroke="#000000" d="M68.8939,-396.1686C68.8939,-403.869 68.8939,-413.0257 68.8939,-421.5834"/>
<polygon fill="#000000" stroke="#000000" points="65.394,-421.5867 68.8939,-431.5867 72.394,-421.5868 65.394,-421.5867"/>
</g>
<!-- entity -->
<g id="node8" class="node">
<title>entity</title>
<ellipse fill="#b2dfee" stroke="#b2dfee" cx="68.8939" cy="-522" rx="30.5947" ry="18"/>
<text text-anchor="middle" x="68.8939" y="-518.3" font-family="Times,serif" font-size="14.00" fill="#000000">entity</text>
</g>
<!-- abstraction&#45;&gt;entity -->
<g id="edge7" class="edge">
<title>abstraction&#45;&gt;entity</title>
<path fill="none" stroke="#000000" d="M68.8939,-468.1686C68.8939,-475.869 68.8939,-485.0257 68.8939,-493.5834"/>
<polygon fill="#000000" stroke="#000000" points="65.394,-493.5867 68.8939,-503.5867 72.394,-493.5868 65.394,-493.5867"/>
</g>
</g>
</svg>
