<?xml version="1.0" encoding="UTF-8" standalone="no"?>
<!DOCTYPE svg PUBLIC "-//W3C//DTD SVG 1.1//EN"
 "http://www.w3.org/Graphics/SVG/1.1/DTD/svg11.dtd">
<!-- Generated by graphviz version 2.40.1 (20161225.0304)
 -->
<!-- Title: unix Pages: 1 -->
<svg width="218pt" height="836pt"
 viewBox="0.00 0.00 217.54 836.00" xmlns="http://www.w3.org/2000/svg" xmlns:xlink="http://www.w3.org/1999/xlink">
<g id="graph0" class="graph" transform="scale(1 1) rotate(0) translate(4 832)">
<title>unix</title>
<polygon fill="#ffffff" stroke="transparent" points="-4,4 -4,-832 213.5415,-832 213.5415,4 -4,4"/>
<!-- truck -->
<g id="node1" class="node">
<title>truck</title>
<ellipse fill="#b2dfee" stroke="#b2dfee" cx="100.5461" cy="-18" rx="28.6953" ry="18"/>
<text text-anchor="middle" x="100.5461" y="-14.3" font-family="Times,serif" font-size="14.00" fill="#000000">truck</text>
</g>
<!-- motor_vehicle -->
<g id="node2" class="node">
<title>motor_vehicle</title>
<ellipse fill="#b2dfee" stroke="#b2dfee" cx="100.5461" cy="-90" rx="61.99" ry="18"/>
<text text-anchor="middle" x="100.5461" y="-86.3" font-family="Times,serif" font-size="14.00" fill="#000000">motor_vehicle</text>
</g>
<!-- truck&#45;&gt;motor_vehicle -->
<g id="edge1" class="edge">
<title>truck&#45;&gt;motor_vehicle</title>
<path fill="none" stroke="#000000" d="M100.5461,-36.1686C100.5461,-43.869 100.5461,-53.0257 100.5461,-61.5834"/>
<polygon fill="#000000" stroke="#000000" points="97.0462,-61.5867 100.5461,-71.5867 104.0462,-61.5868 97.0462,-61.5867"/>
</g>
<!-- self&#45;propelled_vehicle -->
<g id="node3" class="node">
<title>self&#45;propelled_vehicle</title>
<ellipse fill="#b2dfee" stroke="#b2dfee" cx="100.5461" cy="-162" rx="89.0842" ry="18"/>
<text text-anchor="middle" x="100.5461" y="-158.3" font-family="Times,serif" font-size="14.00" fill="#000000">self&#45;propelled_vehicle</text>
</g>
<!-- motor_vehicle&#45;&gt;self&#45;propelled_vehicle -->
<g id="edge2" class="edge">
<title>motor_vehicle&#45;&gt;self&#45;propelled_vehicle</title>
<path fill="none" stroke="#000000" d="M100.5461,-108.1686C100.5461,-115.869 100.5461,-125.0257 100.5461,-133.5834"/>
<polygon fill="#000000" stroke="#000000" points="97.0462,-133.5867 100.5461,-143.5867 104.0462,-133.5868 97.0462,-133.5867"/>
</g>
<!-- wheeled_vehicle -->
<g id="node4" class="node">
<title>wheeled_vehicle</title>
<ellipse fill="#b2dfee" stroke="#b2dfee" cx="100.5461" cy="-234" rx="69.5877" ry="18"/>
<text text-anchor="middle" x="100.5461" y="-230.3" font-family="Times,serif" font-size="14.00" fill="#000000">wheeled_vehicle</text>
</g>
<!-- self&#45;propelled_vehicle&#45;&gt;wheeled_vehicle -->
<g id="edge3" class="edge">
<title>self&#45;propelled_vehicle&#45;&gt;wheeled_vehicle</title>
<path fill="none" stroke="#000000" d="M100.5461,-180.1686C100.5461,-187.869 100.5461,-197.0257 100.5461,-205.5834"/>
<polygon fill="#000000" stroke="#000000" points="97.0462,-205.5867 100.5461,-215.5867 104.0462,-205.5868 97.0462,-205.5867"/>
</g>
<!-- container -->
<g id="node5" class="node">
<title>container</title>
<ellipse fill="#b2dfee" stroke="#b2dfee" cx="43.5461" cy="-378" rx="43.5923" ry="18"/>
<text text-anchor="middle" x="43.5461" y="-374.3" font-family="Times,serif" font-size="14.00" fill="#000000">container</text>
</g>
<!-- wheeled_vehicle&#45;&gt;container -->
<g id="edge4" class="edge">
<title>wheeled_vehicle&#45;&gt;container</title>
<path fill="none" stroke="#000000" d="M93.4423,-251.9465C83.6716,-276.6304 65.9943,-321.2889 54.5173,-350.2833"/>
<polygon fill="#000000" stroke="#000000" points="51.1657,-349.241 50.7395,-359.8273 57.6744,-351.8174 51.1657,-349.241"/>
</g>
<!-- vehicle -->
<g id="node12" class="node">
<title>vehicle</title>
<ellipse fill="#b2dfee" stroke="#b2dfee" cx="144.5461" cy="-306" rx="36.2938" ry="18"/>
<text text-anchor="middle" x="144.5461" y="-302.3" font-family="Times,serif" font-size="14.00" fill="#000000">vehicle</text>
</g>
<!-- wheeled_vehicle&#45;&gt;vehicle -->
<g id="edge11" class="edge">
<title>wheeled_vehicle&#45;&gt;vehicle</title>
<path fill="none" stroke="#000000" d="M111.4225,-251.7978C116.6296,-260.3183 122.9647,-270.685 128.6948,-280.0615"/>
<polygon fill="#000000" stroke="#000000" points="125.7456,-281.9477 133.9467,-288.6554 131.7186,-278.2975 125.7456,-281.9477"/>
</g>
<!-- instrumentality -->
<g id="node6" class="node">
<title>instrumentality</title>
<ellipse fill="#b2dfee" stroke="#b2dfee" cx="100.5461" cy="-450" rx="64.189" ry="18"/>
<text text-anchor="middle" x="100.5461" y="-446.3" font-family="Times,serif" font-size="14.00" fill="#000000">instrumentality</text>
</g>
<!-- container&#45;&gt;instrumentality -->
<g id="edge5" class="edge">
<title>container&#45;&gt;instrumentality</title>
<path fill="none" stroke="#000000" d="M57.3442,-395.4292C64.1737,-404.0559 72.5542,-414.6418 80.1106,-424.1866"/>
<polygon fill="#000000" stroke="#000000" points="77.5279,-426.5631 86.4791,-432.2311 83.0162,-422.2182 77.5279,-426.5631"/>
</g>
<!-- artifact -->
<g id="node7" class="node">
<title>artifact</title>
<ellipse fill="#b2dfee" stroke="#b2dfee" cx="100.5461" cy="-522" rx="35.9954" ry="18"/>
<text text-anchor="middle" x="100.5461" y="-518.3" font-family="Times,serif" font-size="14.00" fill="#000000">artifact</text>
</g>
<!-- instrumentality&#45;&gt;artifact -->
<g id="edge6" class="edge">
<title>instrumentality&#45;&gt;artifact</title>
<path fill="none" stroke="#000000" d="M100.5461,-468.1686C100.5461,-475.869 100.5461,-485.0257 100.5461,-493.5834"/>
<polygon fill="#000000" stroke="#000000" points="97.0462,-493.5867 100.5461,-503.5867 104.0462,-493.5868 97.0462,-493.5867"/>
</g>
<!-- whole -->
<g id="node8" class="node">
<title>whole</title>
<ellipse fill="#b2dfee" stroke="#b2dfee" cx="100.5461" cy="-594" rx="32.4942" ry="18"/>
<text text-anchor="middle" x="100.5461" y="-590.3" font-family="Times,serif" font-size="14.00" fill="#000000">whole</text>
</g>
<!-- artifact&#45;&gt;whole -->
<g id="edge7" class="edge">
<title>artifact&#45;&gt;whole</title>
<path fill="none" stroke="#000000" d="M100.5461,-540.1686C100.5461,-547.869 100.5461,-557.0257 100.5461,-565.5834"/>
<polygon fill="#000000" stroke="#000000" points="97.0462,-565.5867 100.5461,-575.5867 104.0462,-565.5868 97.0462,-565.5867"/>
</g>
<!-- object -->
<g id="node9" class="node">
<title>object</title>
<ellipse fill="#b2dfee" stroke="#b2dfee" cx="100.5461" cy="-666" rx="32.4942" ry="18"/>
<text text-anchor="middle" x="100.5461" y="-662.3" font-family="Times,serif" font-size="14.00" fill="#000000">object</text>
</g>
<!-- whole&#45;&gt;object -->
<g id="edge8" class="edge">
<title>whole&#45;&gt;object</title>
<path fill="none" stroke="#000000" d="M100.5461,-612.1686C100.5461,-619.869 100.5461,-629.0257 100.5461,-637.5834"/>
<polygon fill="#000000" stroke="#000000" points="97.0462,-637.5867 100.5461,-647.5867 104.0462,-637.5868 97.0462,-637.5867"/>
</g>
<!-- physical_entity -->
<g id="node10" class="node">
<title>physical_entity</title>
<ellipse fill="#b2dfee" stroke="#b2dfee" cx="100.5461" cy="-738" rx="64.189" ry="18"/>
<text text-anchor="middle" x="100.5461" y="-734.3" font-family="Times,serif" font-size="14.00" fill="#000000">physical_entity</text>
</g>
<!-- object&#45;&gt;physical_entity -->
<g id="edge9" class="edge">
<title>object&#45;&gt;physical_entity</title>
<path fill="none" stroke="#000000" d="M100.5461,-684.1686C100.5461,-691.869 100.5461,-701.0257 100.5461,-709.5834"/>
<polygon fill="#000000" stroke="#000000" points="97.0462,-709.5867 100.5461,-719.5867 104.0462,-709.5868 97.0462,-709.5867"/>
</g>
<!-- entity -->
<g id="node11" class="node">
<title>entity</title>
<ellipse fill="#b2dfee" stroke="#b2dfee" cx="100.5461" cy="-810" rx="30.5947" ry="18"/>
<text text-anchor="middle" x="100.5461" y="-806.3" font-family="Times,serif" font-size="14.00" fill="#000000">entity</text>
</g>
<!-- physical_entity&#45;&gt;entity -->
<g id="edge10" class="edge">
<title>physical_entity&#45;&gt;entity</title>
<path fill="none" stroke="#000000" d="M100.5461,-756.1686C100.5461,-763.869 100.5461,-773.0257 100.5461,-781.5834"/>
<polygon fill="#000000" stroke="#000000" points="97.0462,-781.5867 100.5461,-791.5867 104.0462,-781.5868 97.0462,-781.5867"/>
</g>
<!-- conveyance -->
<g id="node13" class="node">
<title>conveyance</title>
<ellipse fill="#b2dfee" stroke="#b2dfee" cx="157.5461" cy="-378" rx="51.9908" ry="18"/>
<text text-anchor="middle" x="157.5461" y="-374.3" font-family="Times,serif" font-size="14.00" fill="#000000">conveyance</text>
</g>
<!-- vehicle&#45;&gt;conveyance -->
<g id="edge12" class="edge">
<title>vehicle&#45;&gt;conveyance</title>
<path fill="none" stroke="#000000" d="M147.8266,-324.1686C149.2169,-331.869 150.8702,-341.0257 152.4154,-349.5834"/>
<polygon fill="#000000" stroke="#000000" points="149.0003,-350.3678 154.2215,-359.5867 155.8889,-349.1239 149.0003,-350.3678"/>
</g>
<!-- conveyance&#45;&gt;instrumentality -->
<g id="edge13" class="edge">
<title>conveyance&#45;&gt;instrumentality</title>
<path fill="none" stroke="#000000" d="M143.748,-395.4292C136.9186,-404.0559 128.538,-414.6418 120.9817,-424.1866"/>
<polygon fill="#000000" stroke="#000000" points="118.0761,-422.2182 114.6132,-432.2311 123.5644,-426.5631 118.0761,-422.2182"/>
</g>
</g>
</svg>
