<?xml version="1.0" encoding="UTF-8" standalone="no"?>
<!DOCTYPE svg PUBLIC "-//W3C//DTD SVG 1.1//EN"
 "http://www.w3.org/Graphics/SVG/1.1/DTD/svg11.dtd">
<!-- Generated by graphviz version 2.40.1 (20161225.0304)
 -->
<!-- Title: unix Pages: 1 -->
<svg width="173pt" height="332pt"
 viewBox="0.00 0.00 173.09 332.00" xmlns="http://www.w3.org/2000/svg" xmlns:xlink="http://www.w3.org/1999/xlink">
<g id="graph0" class="graph" transform="scale(1 1) rotate(0) translate(4 328)">
<title>unix</title>
<polygon fill="#ffffff" stroke="transparent" points="-4,4 -4,-328 169.0854,-328 169.0854,4 -4,4"/>
<!-- body_part.n.01 -->
<g id="node1" class="node">
<title>body_part.n.01</title>
<ellipse fill="#b2dfee" stroke="#b2dfee" cx="82.5427" cy="-18" rx="64.189" ry="18"/>
<text text-anchor="middle" x="82.5427" y="-14.3" font-family="Times,serif" font-size="14.00" fill="#000000">body_part.n.01</text>
</g>
<!-- part.n.03 -->
<g id="node2" class="node">
<title>part.n.03</title>
<ellipse fill="#b2dfee" stroke="#b2dfee" cx="82.5427" cy="-90" rx="42.4939" ry="18"/>
<text text-anchor="middle" x="82.5427" y="-86.3" font-family="Times,serif" font-size="14.00" fill="#000000">part.n.03</text>
</g>
<!-- body_part.n.01&#45;&gt;part.n.03 -->
<g id="edge1" class="edge">
<title>body_part.n.01&#45;&gt;part.n.03</title>
<path fill="none" stroke="#000000" d="M82.5427,-36.1686C82.5427,-43.869 82.5427,-53.0257 82.5427,-61.5834"/>
<polygon fill="#000000" stroke="#000000" points="79.0428,-61.5867 82.5427,-71.5867 86.0428,-61.5868 79.0428,-61.5867"/>
</g>
<!-- thing.n.12 -->
<g id="node3" class="node">
<title>thing.n.12</title>
<ellipse fill="#b2dfee" stroke="#b2dfee" cx="82.5427" cy="-162" rx="46.5926" ry="18"/>
<text text-anchor="middle" x="82.5427" y="-158.3" font-family="Times,serif" font-size="14.00" fill="#000000">thing.n.12</text>
</g>
<!-- part.n.03&#45;&gt;thing.n.12 -->
<g id="edge2" class="edge">
<title>part.n.03&#45;&gt;thing.n.12</title>
<path fill="none" stroke="#000000" d="M82.5427,-108.1686C82.5427,-115.869 82.5427,-125.0257 82.5427,-133.5834"/>
<polygon fill="#000000" stroke="#000000" points="79.0428,-133.5867 82.5427,-143.5867 86.0428,-133.5868 79.0428,-133.5867"/>
</g>
<!-- physical_entity.n.01 -->
<g id="node4" class="node">
<title>physical_entity.n.01</title>
<ellipse fill="#b2dfee" stroke="#b2dfee" cx="82.5427" cy="-234" rx="82.5854" ry="18"/>
<text text-anchor="middle" x="82.5427" y="-230.3" font-family="Times,serif" font-size="14.00" fill="#000000">physical_entity.n.01</text>
</g>
<!-- thing.n.12&#45;&gt;physical_entity.n.01 -->
<g id="edge3" class="edge">
<title>thing.n.12&#45;&gt;physical_entity.n.01</title>
<path fill="none" stroke="#000000" d="M82.5427,-180.1686C82.5427,-187.869 82.5427,-197.0257 82.5427,-205.5834"/>
<polygon fill="#000000" stroke="#000000" points="79.0428,-205.5867 82.5427,-215.5867 86.0428,-205.5868 79.0428,-205.5867"/>
</g>
<!-- entity.n.01 -->
<g id="node5" class="node">
<title>entity.n.01</title>
<ellipse fill="#b2dfee" stroke="#b2dfee" cx="82.5427" cy="-306" rx="48.9926" ry="18"/>
<text text-anchor="middle" x="82.5427" y="-302.3" font-family="Times,serif" font-size="14.00" fill="#000000">entity.n.01</text>
</g>
<!-- physical_entity.n.01&#45;&gt;entity.n.01 -->
<g id="edge4" class="edge">
<title>physical_entity.n.01&#45;&gt;entity.n.01</title>
<path fill="none" stroke="#000000" d="M82.5427,-252.1686C82.5427,-259.869 82.5427,-269.0257 82.5427,-277.5834"/>
<polygon fill="#000000" stroke="#000000" points="79.0428,-277.5867 82.5427,-287.5867 86.0428,-277.5868 79.0428,-277.5867"/>
</g>
</g>
</svg>
