<?xml version="1.0" encoding="UTF-8" standalone="no"?>
<!DOCTYPE svg PUBLIC "-//W3C//DTD SVG 1.1//EN"
 "http://www.w3.org/Graphics/SVG/1.1/DTD/svg11.dtd">
<!-- Generated by graphviz version 2.40.1 (20161225.0304)
 -->
<!-- Title: unix Pages: 1 -->
<svg width="395pt" height="620pt"
 viewBox="0.00 0.00 395.48 620.00" xmlns="http://www.w3.org/2000/svg" xmlns:xlink="http://www.w3.org/1999/xlink">
<g id="graph0" class="graph" transform="scale(1 1) rotate(0) translate(4 616)">
<title>unix</title>
<polygon fill="#ffffff" stroke="transparent" points="-4,4 -4,-616 391.4821,-616 391.4821,4 -4,4"/>
<!-- city.n.01 -->
<g id="node1" class="node">
<title>city.n.01</title>
<ellipse fill="#b2dfee" stroke="#b2dfee" cx="205.5404" cy="-18" rx="42.4939" ry="18"/>
<text text-anchor="middle" x="205.5404" y="-14.3" font-family="Times,serif" font-size="14.00" fill="#000000">city.n.01</text>
</g>
<!-- municipality.n.01 -->
<g id="node2" class="node">
<title>municipality.n.01</title>
<ellipse fill="#b2dfee" stroke="#b2dfee" cx="205.5404" cy="-90" rx="73.387" ry="18"/>
<text text-anchor="middle" x="205.5404" y="-86.3" font-family="Times,serif" font-size="14.00" fill="#000000">municipality.n.01</text>
</g>
<!-- city.n.01&#45;&gt;municipality.n.01 -->
<g id="edge1" class="edge">
<title>city.n.01&#45;&gt;municipality.n.01</title>
<path fill="none" stroke="#000000" d="M205.5404,-36.1686C205.5404,-43.869 205.5404,-53.0257 205.5404,-61.5834"/>
<polygon fill="#000000" stroke="#000000" points="202.0405,-61.5867 205.5404,-71.5867 209.0405,-61.5868 202.0405,-61.5867"/>
</g>
<!-- administrative_district.n.01 -->
<g id="node3" class="node">
<title>administrative_district.n.01</title>
<ellipse fill="#b2dfee" stroke="#b2dfee" cx="108.5404" cy="-162" rx="108.5808" ry="18"/>
<text text-anchor="middle" x="108.5404" y="-158.3" font-family="Times,serif" font-size="14.00" fill="#000000">administrative_district.n.01</text>
</g>
<!-- municipality.n.01&#45;&gt;administrative_district.n.01 -->
<g id="edge2" class="edge">
<title>municipality.n.01&#45;&gt;administrative_district.n.01</title>
<path fill="none" stroke="#000000" d="M182.0594,-107.4292C169.6155,-116.6659 154.1457,-128.1486 140.6115,-138.1946"/>
<polygon fill="#000000" stroke="#000000" points="138.4226,-135.4605 132.479,-144.2311 142.5948,-141.0813 138.4226,-135.4605"/>
</g>
<!-- urban_area.n.01 -->
<g id="node10" class="node">
<title>urban_area.n.01</title>
<ellipse fill="#b2dfee" stroke="#b2dfee" cx="302.5404" cy="-162" rx="67.6881" ry="18"/>
<text text-anchor="middle" x="302.5404" y="-158.3" font-family="Times,serif" font-size="14.00" fill="#000000">urban_area.n.01</text>
</g>
<!-- municipality.n.01&#45;&gt;urban_area.n.01 -->
<g id="edge9" class="edge">
<title>municipality.n.01&#45;&gt;urban_area.n.01</title>
<path fill="none" stroke="#000000" d="M229.0214,-107.4292C241.7438,-116.8727 257.6292,-128.6639 271.3753,-138.8672"/>
<polygon fill="#000000" stroke="#000000" points="269.4945,-141.8299 279.6103,-144.9798 273.6667,-136.2091 269.4945,-141.8299"/>
</g>
<!-- district.n.01 -->
<g id="node4" class="node">
<title>district.n.01</title>
<ellipse fill="#b2dfee" stroke="#b2dfee" cx="115.5404" cy="-234" rx="53.0913" ry="18"/>
<text text-anchor="middle" x="115.5404" y="-230.3" font-family="Times,serif" font-size="14.00" fill="#000000">district.n.01</text>
</g>
<!-- administrative_district.n.01&#45;&gt;district.n.01 -->
<g id="edge3" class="edge">
<title>administrative_district.n.01&#45;&gt;district.n.01</title>
<path fill="none" stroke="#000000" d="M110.3068,-180.1686C111.0554,-187.869 111.9456,-197.0257 112.7776,-205.5834"/>
<polygon fill="#000000" stroke="#000000" points="109.2989,-205.9724 113.7502,-215.5867 116.266,-205.2949 109.2989,-205.9724"/>
</g>
<!-- region.n.03 -->
<g id="node5" class="node">
<title>region.n.03</title>
<ellipse fill="#b2dfee" stroke="#b2dfee" cx="204.5404" cy="-306" rx="51.1914" ry="18"/>
<text text-anchor="middle" x="204.5404" y="-302.3" font-family="Times,serif" font-size="14.00" fill="#000000">region.n.03</text>
</g>
<!-- district.n.01&#45;&gt;region.n.03 -->
<g id="edge4" class="edge">
<title>district.n.01&#45;&gt;region.n.03</title>
<path fill="none" stroke="#000000" d="M136.1825,-250.6992C147.977,-260.2409 162.9463,-272.3509 175.8683,-282.8046"/>
<polygon fill="#000000" stroke="#000000" points="174.0344,-285.8229 184.0102,-289.3913 178.437,-280.3808 174.0344,-285.8229"/>
</g>
<!-- location.n.01 -->
<g id="node6" class="node">
<title>location.n.01</title>
<ellipse fill="#b2dfee" stroke="#b2dfee" cx="204.5404" cy="-378" rx="57.3905" ry="18"/>
<text text-anchor="middle" x="204.5404" y="-374.3" font-family="Times,serif" font-size="14.00" fill="#000000">location.n.01</text>
</g>
<!-- region.n.03&#45;&gt;location.n.01 -->
<g id="edge5" class="edge">
<title>region.n.03&#45;&gt;location.n.01</title>
<path fill="none" stroke="#000000" d="M204.5404,-324.1686C204.5404,-331.869 204.5404,-341.0257 204.5404,-349.5834"/>
<polygon fill="#000000" stroke="#000000" points="201.0405,-349.5867 204.5404,-359.5867 208.0405,-349.5868 201.0405,-349.5867"/>
</g>
<!-- object.n.01 -->
<g id="node7" class="node">
<title>object.n.01</title>
<ellipse fill="#b2dfee" stroke="#b2dfee" cx="204.5404" cy="-450" rx="50.0912" ry="18"/>
<text text-anchor="middle" x="204.5404" y="-446.3" font-family="Times,serif" font-size="14.00" fill="#000000">object.n.01</text>
</g>
<!-- location.n.01&#45;&gt;object.n.01 -->
<g id="edge6" class="edge">
<title>location.n.01&#45;&gt;object.n.01</title>
<path fill="none" stroke="#000000" d="M204.5404,-396.1686C204.5404,-403.869 204.5404,-413.0257 204.5404,-421.5834"/>
<polygon fill="#000000" stroke="#000000" points="201.0405,-421.5867 204.5404,-431.5867 208.0405,-421.5868 201.0405,-421.5867"/>
</g>
<!-- physical_entity.n.01 -->
<g id="node8" class="node">
<title>physical_entity.n.01</title>
<ellipse fill="#b2dfee" stroke="#b2dfee" cx="204.5404" cy="-522" rx="82.5854" ry="18"/>
<text text-anchor="middle" x="204.5404" y="-518.3" font-family="Times,serif" font-size="14.00" fill="#000000">physical_entity.n.01</text>
</g>
<!-- object.n.01&#45;&gt;physical_entity.n.01 -->
<g id="edge7" class="edge">
<title>object.n.01&#45;&gt;physical_entity.n.01</title>
<path fill="none" stroke="#000000" d="M204.5404,-468.1686C204.5404,-475.869 204.5404,-485.0257 204.5404,-493.5834"/>
<polygon fill="#000000" stroke="#000000" points="201.0405,-493.5867 204.5404,-503.5867 208.0405,-493.5868 201.0405,-493.5867"/>
</g>
<!-- entity.n.01 -->
<g id="node9" class="node">
<title>entity.n.01</title>
<ellipse fill="#b2dfee" stroke="#b2dfee" cx="204.5404" cy="-594" rx="48.9926" ry="18"/>
<text text-anchor="middle" x="204.5404" y="-590.3" font-family="Times,serif" font-size="14.00" fill="#000000">entity.n.01</text>
</g>
<!-- physical_entity.n.01&#45;&gt;entity.n.01 -->
<g id="edge8" class="edge">
<title>physical_entity.n.01&#45;&gt;entity.n.01</title>
<path fill="none" stroke="#000000" d="M204.5404,-540.1686C204.5404,-547.869 204.5404,-557.0257 204.5404,-565.5834"/>
<polygon fill="#000000" stroke="#000000" points="201.0405,-565.5867 204.5404,-575.5867 208.0405,-565.5868 201.0405,-565.5867"/>
</g>
<!-- geographical_area.n.01 -->
<g id="node11" class="node">
<title>geographical_area.n.01</title>
<ellipse fill="#b2dfee" stroke="#b2dfee" cx="294.5404" cy="-234" rx="92.8835" ry="18"/>
<text text-anchor="middle" x="294.5404" y="-230.3" font-family="Times,serif" font-size="14.00" fill="#000000">geographical_area.n.01</text>
</g>
<!-- urban_area.n.01&#45;&gt;geographical_area.n.01 -->
<g id="edge10" class="edge">
<title>urban_area.n.01&#45;&gt;geographical_area.n.01</title>
<path fill="none" stroke="#000000" d="M300.5216,-180.1686C299.666,-187.869 298.6486,-197.0257 297.6978,-205.5834"/>
<polygon fill="#000000" stroke="#000000" points="294.2121,-205.2614 296.5863,-215.5867 301.1693,-206.0344 294.2121,-205.2614"/>
</g>
<!-- geographical_area.n.01&#45;&gt;region.n.03 -->
<g id="edge11" class="edge">
<title>geographical_area.n.01&#45;&gt;region.n.03</title>
<path fill="none" stroke="#000000" d="M272.2932,-251.7978C260.5079,-261.226 245.897,-272.9147 233.2641,-283.021"/>
<polygon fill="#000000" stroke="#000000" points="230.9199,-280.4141 225.2977,-289.3942 235.2928,-285.8802 230.9199,-280.4141"/>
</g>
</g>
</svg>
