<?xml version="1.0" encoding="UTF-8" standalone="no"?>
<!DOCTYPE svg PUBLIC "-//W3C//DTD SVG 1.1//EN"
 "http://www.w3.org/Graphics/SVG/1.1/DTD/svg11.dtd">
<!-- Generated by graphviz version 2.40.1 (20161225.0304)
 -->
<!-- Title: unix Pages: 1 -->
<svg width="297pt" height="548pt"
 viewBox="0.00 0.00 296.84 548.00" xmlns="http://www.w3.org/2000/svg" xmlns:xlink="http://www.w3.org/1999/xlink">
<g id="graph0" class="graph" transform="scale(1 1) rotate(0) translate(4 544)">
<title>unix</title>
<polygon fill="#ffffff" stroke="transparent" points="-4,4 -4,-544 292.8368,-544 292.8368,4 -4,4"/>
<!-- clothing.n.01 -->
<g id="node1" class="node">
<title>clothing.n.01</title>
<ellipse fill="#b2dfee" stroke="#b2dfee" cx="155.0421" cy="-18" rx="57.6901" ry="18"/>
<text text-anchor="middle" x="155.0421" y="-14.3" font-family="Times,serif" font-size="14.00" fill="#000000">clothing.n.01</text>
</g>
<!-- consumer_goods.n.01 -->
<g id="node2" class="node">
<title>consumer_goods.n.01</title>
<ellipse fill="#b2dfee" stroke="#b2dfee" cx="89.0421" cy="-90" rx="89.0842" ry="18"/>
<text text-anchor="middle" x="89.0421" y="-86.3" font-family="Times,serif" font-size="14.00" fill="#000000">consumer_goods.n.01</text>
</g>
<!-- clothing.n.01&#45;&gt;consumer_goods.n.01 -->
<g id="edge1" class="edge">
<title>clothing.n.01&#45;&gt;consumer_goods.n.01</title>
<path fill="none" stroke="#000000" d="M139.0653,-35.4292C130.9978,-44.2302 121.061,-55.0703 112.1753,-64.7638"/>
<polygon fill="#000000" stroke="#000000" points="109.5075,-62.4945 105.3302,-72.2311 114.6676,-67.2246 109.5075,-62.4945"/>
</g>
<!-- covering.n.02 -->
<g id="node9" class="node">
<title>covering.n.02</title>
<ellipse fill="#b2dfee" stroke="#b2dfee" cx="229.0421" cy="-162" rx="59.5901" ry="18"/>
<text text-anchor="middle" x="229.0421" y="-158.3" font-family="Times,serif" font-size="14.00" fill="#000000">covering.n.02</text>
</g>
<!-- clothing.n.01&#45;&gt;covering.n.02 -->
<g id="edge8" class="edge">
<title>clothing.n.01&#45;&gt;covering.n.02</title>
<path fill="none" stroke="#000000" d="M166.1575,-35.7488C172.5293,-46.165 180.5293,-59.665 187.0421,-72 197.9106,-92.5845 208.9961,-116.487 217.0472,-134.4837"/>
<polygon fill="#000000" stroke="#000000" points="213.9327,-136.0942 221.1873,-143.8157 220.3313,-133.2555 213.9327,-136.0942"/>
</g>
<!-- commodity.n.01 -->
<g id="node3" class="node">
<title>commodity.n.01</title>
<ellipse fill="#b2dfee" stroke="#b2dfee" cx="82.0421" cy="-162" rx="69.5877" ry="18"/>
<text text-anchor="middle" x="82.0421" y="-158.3" font-family="Times,serif" font-size="14.00" fill="#000000">commodity.n.01</text>
</g>
<!-- consumer_goods.n.01&#45;&gt;commodity.n.01 -->
<g id="edge2" class="edge">
<title>consumer_goods.n.01&#45;&gt;commodity.n.01</title>
<path fill="none" stroke="#000000" d="M87.2757,-108.1686C86.5271,-115.869 85.6368,-125.0257 84.8048,-133.5834"/>
<polygon fill="#000000" stroke="#000000" points="81.3165,-133.2949 83.8323,-143.5867 88.2836,-133.9724 81.3165,-133.2949"/>
</g>
<!-- artifact.n.01 -->
<g id="node4" class="node">
<title>artifact.n.01</title>
<ellipse fill="#b2dfee" stroke="#b2dfee" cx="155.0421" cy="-234" rx="53.8905" ry="18"/>
<text text-anchor="middle" x="155.0421" y="-230.3" font-family="Times,serif" font-size="14.00" fill="#000000">artifact.n.01</text>
</g>
<!-- commodity.n.01&#45;&gt;artifact.n.01 -->
<g id="edge3" class="edge">
<title>commodity.n.01&#45;&gt;artifact.n.01</title>
<path fill="none" stroke="#000000" d="M99.7134,-179.4292C108.8594,-188.45 120.1775,-199.613 130.1895,-209.4879"/>
<polygon fill="#000000" stroke="#000000" points="127.9561,-212.201 137.5336,-216.7313 132.8716,-207.2173 127.9561,-212.201"/>
</g>
<!-- whole.n.02 -->
<g id="node5" class="node">
<title>whole.n.02</title>
<ellipse fill="#b2dfee" stroke="#b2dfee" cx="155.0421" cy="-306" rx="50.0912" ry="18"/>
<text text-anchor="middle" x="155.0421" y="-302.3" font-family="Times,serif" font-size="14.00" fill="#000000">whole.n.02</text>
</g>
<!-- artifact.n.01&#45;&gt;whole.n.02 -->
<g id="edge4" class="edge">
<title>artifact.n.01&#45;&gt;whole.n.02</title>
<path fill="none" stroke="#000000" d="M155.0421,-252.1686C155.0421,-259.869 155.0421,-269.0257 155.0421,-277.5834"/>
<polygon fill="#000000" stroke="#000000" points="151.5422,-277.5867 155.0421,-287.5867 158.5422,-277.5868 151.5422,-277.5867"/>
</g>
<!-- object.n.01 -->
<g id="node6" class="node">
<title>object.n.01</title>
<ellipse fill="#b2dfee" stroke="#b2dfee" cx="155.0421" cy="-378" rx="50.0912" ry="18"/>
<text text-anchor="middle" x="155.0421" y="-374.3" font-family="Times,serif" font-size="14.00" fill="#000000">object.n.01</text>
</g>
<!-- whole.n.02&#45;&gt;object.n.01 -->
<g id="edge5" class="edge">
<title>whole.n.02&#45;&gt;object.n.01</title>
<path fill="none" stroke="#000000" d="M155.0421,-324.1686C155.0421,-331.869 155.0421,-341.0257 155.0421,-349.5834"/>
<polygon fill="#000000" stroke="#000000" points="151.5422,-349.5867 155.0421,-359.5867 158.5422,-349.5868 151.5422,-349.5867"/>
</g>
<!-- physical_entity.n.01 -->
<g id="node7" class="node">
<title>physical_entity.n.01</title>
<ellipse fill="#b2dfee" stroke="#b2dfee" cx="155.0421" cy="-450" rx="82.5854" ry="18"/>
<text text-anchor="middle" x="155.0421" y="-446.3" font-family="Times,serif" font-size="14.00" fill="#000000">physical_entity.n.01</text>
</g>
<!-- object.n.01&#45;&gt;physical_entity.n.01 -->
<g id="edge6" class="edge">
<title>object.n.01&#45;&gt;physical_entity.n.01</title>
<path fill="none" stroke="#000000" d="M155.0421,-396.1686C155.0421,-403.869 155.0421,-413.0257 155.0421,-421.5834"/>
<polygon fill="#000000" stroke="#000000" points="151.5422,-421.5867 155.0421,-431.5867 158.5422,-421.5868 151.5422,-421.5867"/>
</g>
<!-- entity.n.01 -->
<g id="node8" class="node">
<title>entity.n.01</title>
<ellipse fill="#b2dfee" stroke="#b2dfee" cx="155.0421" cy="-522" rx="48.9926" ry="18"/>
<text text-anchor="middle" x="155.0421" y="-518.3" font-family="Times,serif" font-size="14.00" fill="#000000">entity.n.01</text>
</g>
<!-- physical_entity.n.01&#45;&gt;entity.n.01 -->
<g id="edge7" class="edge">
<title>physical_entity.n.01&#45;&gt;entity.n.01</title>
<path fill="none" stroke="#000000" d="M155.0421,-468.1686C155.0421,-475.869 155.0421,-485.0257 155.0421,-493.5834"/>
<polygon fill="#000000" stroke="#000000" points="151.5422,-493.5867 155.0421,-503.5867 158.5422,-493.5868 151.5422,-493.5867"/>
</g>
<!-- covering.n.02&#45;&gt;artifact.n.01 -->
<g id="edge9" class="edge">
<title>covering.n.02&#45;&gt;artifact.n.01</title>
<path fill="none" stroke="#000000" d="M211.1288,-179.4292C201.8574,-188.45 190.3843,-199.613 180.2351,-209.4879"/>
<polygon fill="#000000" stroke="#000000" points="177.517,-207.2492 172.7905,-216.7313 182.3985,-212.2663 177.517,-207.2492"/>
</g>
</g>
</svg>
