<?xml version="1.0" encoding="UTF-8" standalone="no"?>
<!DOCTYPE svg PUBLIC "-//W3C//DTD SVG 1.1//EN"
 "http://www.w3.org/Graphics/SVG/1.1/DTD/svg11.dtd">
<!-- Generated by graphviz version 2.40.1 (20161225.0304)
 -->
<!-- Title: unix Pages: 1 -->
<svg width="176pt" height="404pt"
 viewBox="0.00 0.00 175.69 404.00" xmlns="http://www.w3.org/2000/svg" xmlns:xlink="http://www.w3.org/1999/xlink">
<g id="graph0" class="graph" transform="scale(1 1) rotate(0) translate(4 400)">
<title>unix</title>
<polygon fill="#ffffff" stroke="transparent" points="-4,4 -4,-400 171.6851,-400 171.6851,4 -4,4"/>
<!-- color.n.01 -->
<g id="node1" class="node">
<title>color.n.01</title>
<ellipse fill="#b2dfee" stroke="#b2dfee" cx="83.8426" cy="-18" rx="46.5926" ry="18"/>
<text text-anchor="middle" x="83.8426" y="-14.3" font-family="Times,serif" font-size="14.00" fill="#000000">color.n.01</text>
</g>
<!-- visual_property.n.01 -->
<g id="node2" class="node">
<title>visual_property.n.01</title>
<ellipse fill="#b2dfee" stroke="#b2dfee" cx="83.8426" cy="-90" rx="83.6854" ry="18"/>
<text text-anchor="middle" x="83.8426" y="-86.3" font-family="Times,serif" font-size="14.00" fill="#000000">visual_property.n.01</text>
</g>
<!-- color.n.01&#45;&gt;visual_property.n.01 -->
<g id="edge1" class="edge">
<title>color.n.01&#45;&gt;visual_property.n.01</title>
<path fill="none" stroke="#000000" d="M83.8426,-36.1686C83.8426,-43.869 83.8426,-53.0257 83.8426,-61.5834"/>
<polygon fill="#000000" stroke="#000000" points="80.3427,-61.5867 83.8426,-71.5867 87.3427,-61.5868 80.3427,-61.5867"/>
</g>
<!-- property.n.02 -->
<g id="node3" class="node">
<title>property.n.02</title>
<ellipse fill="#b2dfee" stroke="#b2dfee" cx="83.8426" cy="-162" rx="58.4896" ry="18"/>
<text text-anchor="middle" x="83.8426" y="-158.3" font-family="Times,serif" font-size="14.00" fill="#000000">property.n.02</text>
</g>
<!-- visual_property.n.01&#45;&gt;property.n.02 -->
<g id="edge2" class="edge">
<title>visual_property.n.01&#45;&gt;property.n.02</title>
<path fill="none" stroke="#000000" d="M83.8426,-108.1686C83.8426,-115.869 83.8426,-125.0257 83.8426,-133.5834"/>
<polygon fill="#000000" stroke="#000000" points="80.3427,-133.5867 83.8426,-143.5867 87.3427,-133.5868 80.3427,-133.5867"/>
</g>
<!-- attribute.n.02 -->
<g id="node4" class="node">
<title>attribute.n.02</title>
<ellipse fill="#b2dfee" stroke="#b2dfee" cx="83.8426" cy="-234" rx="57.6901" ry="18"/>
<text text-anchor="middle" x="83.8426" y="-230.3" font-family="Times,serif" font-size="14.00" fill="#000000">attribute.n.02</text>
</g>
<!-- property.n.02&#45;&gt;attribute.n.02 -->
<g id="edge3" class="edge">
<title>property.n.02&#45;&gt;attribute.n.02</title>
<path fill="none" stroke="#000000" d="M83.8426,-180.1686C83.8426,-187.869 83.8426,-197.0257 83.8426,-205.5834"/>
<polygon fill="#000000" stroke="#000000" points="80.3427,-205.5867 83.8426,-215.5867 87.3427,-205.5868 80.3427,-205.5867"/>
</g>
<!-- abstraction.n.06 -->
<g id="node5" class="node">
<title>abstraction.n.06</title>
<ellipse fill="#b2dfee" stroke="#b2dfee" cx="83.8426" cy="-306" rx="67.6881" ry="18"/>
<text text-anchor="middle" x="83.8426" y="-302.3" font-family="Times,serif" font-size="14.00" fill="#000000">abstraction.n.06</text>
</g>
<!-- attribute.n.02&#45;&gt;abstraction.n.06 -->
<g id="edge4" class="edge">
<title>attribute.n.02&#45;&gt;abstraction.n.06</title>
<path fill="none" stroke="#000000" d="M83.8426,-252.1686C83.8426,-259.869 83.8426,-269.0257 83.8426,-277.5834"/>
<polygon fill="#000000" stroke="#000000" points="80.3427,-277.5867 83.8426,-287.5867 87.3427,-277.5868 80.3427,-277.5867"/>
</g>
<!-- entity.n.01 -->
<g id="node6" class="node">
<title>entity.n.01</title>
<ellipse fill="#b2dfee" stroke="#b2dfee" cx="83.8426" cy="-378" rx="48.9926" ry="18"/>
<text text-anchor="middle" x="83.8426" y="-374.3" font-family="Times,serif" font-size="14.00" fill="#000000">entity.n.01</text>
</g>
<!-- abstraction.n.06&#45;&gt;entity.n.01 -->
<g id="edge5" class="edge">
<title>abstraction.n.06&#45;&gt;entity.n.01</title>
<path fill="none" stroke="#000000" d="M83.8426,-324.1686C83.8426,-331.869 83.8426,-341.0257 83.8426,-349.5834"/>
<polygon fill="#000000" stroke="#000000" points="80.3427,-349.5867 83.8426,-359.5867 87.3427,-349.5868 80.3427,-349.5867"/>
</g>
</g>
</svg>
