<?xml version="1.0" encoding="UTF-8" standalone="no"?>
<!DOCTYPE svg PUBLIC "-//W3C//DTD SVG 1.1//EN"
 "http://www.w3.org/Graphics/SVG/1.1/DTD/svg11.dtd">
<!-- Generated by graphviz version 2.40.1 (20161225.0304)
 -->
<!-- Title: unix Pages: 1 -->
<svg width="154pt" height="476pt"
 viewBox="0.00 0.00 153.59 476.00" xmlns="http://www.w3.org/2000/svg" xmlns:xlink="http://www.w3.org/1999/xlink">
<g id="graph0" class="graph" transform="scale(1 1) rotate(0) translate(4 472)">
<title>unix</title>
<polygon fill="#ffffff" stroke="transparent" points="-4,4 -4,-472 149.5871,-472 149.5871,4 -4,4"/>
<!-- expression.n.01 -->
<g id="node1" class="node">
<title>expression.n.01</title>
<ellipse fill="#b2dfee" stroke="#b2dfee" cx="72.7935" cy="-18" rx="66.0889" ry="18"/>
<text text-anchor="middle" x="72.7935" y="-14.3" font-family="Times,serif" font-size="14.00" fill="#000000">expression.n.01</text>
</g>
<!-- countenance.n.01 -->
<g id="node2" class="node">
<title>countenance.n.01</title>
<ellipse fill="#b2dfee" stroke="#b2dfee" cx="72.7935" cy="-90" rx="72.5877" ry="18"/>
<text text-anchor="middle" x="72.7935" y="-86.3" font-family="Times,serif" font-size="14.00" fill="#000000">countenance.n.01</text>
</g>
<!-- expression.n.01&#45;&gt;countenance.n.01 -->
<g id="edge1" class="edge">
<title>expression.n.01&#45;&gt;countenance.n.01</title>
<path fill="none" stroke="#000000" d="M72.7935,-36.1686C72.7935,-43.869 72.7935,-53.0257 72.7935,-61.5834"/>
<polygon fill="#000000" stroke="#000000" points="69.2936,-61.5867 72.7935,-71.5867 76.2936,-61.5868 69.2936,-61.5867"/>
</g>
<!-- appearance.n.01 -->
<g id="node3" class="node">
<title>appearance.n.01</title>
<ellipse fill="#b2dfee" stroke="#b2dfee" cx="72.7935" cy="-162" rx="68.4888" ry="18"/>
<text text-anchor="middle" x="72.7935" y="-158.3" font-family="Times,serif" font-size="14.00" fill="#000000">appearance.n.01</text>
</g>
<!-- countenance.n.01&#45;&gt;appearance.n.01 -->
<g id="edge2" class="edge">
<title>countenance.n.01&#45;&gt;appearance.n.01</title>
<path fill="none" stroke="#000000" d="M72.7935,-108.1686C72.7935,-115.869 72.7935,-125.0257 72.7935,-133.5834"/>
<polygon fill="#000000" stroke="#000000" points="69.2936,-133.5867 72.7935,-143.5867 76.2936,-133.5868 69.2936,-133.5867"/>
</g>
<!-- quality.n.01 -->
<g id="node4" class="node">
<title>quality.n.01</title>
<ellipse fill="#b2dfee" stroke="#b2dfee" cx="72.7935" cy="-234" rx="53.0913" ry="18"/>
<text text-anchor="middle" x="72.7935" y="-230.3" font-family="Times,serif" font-size="14.00" fill="#000000">quality.n.01</text>
</g>
<!-- appearance.n.01&#45;&gt;quality.n.01 -->
<g id="edge3" class="edge">
<title>appearance.n.01&#45;&gt;quality.n.01</title>
<path fill="none" stroke="#000000" d="M72.7935,-180.1686C72.7935,-187.869 72.7935,-197.0257 72.7935,-205.5834"/>
<polygon fill="#000000" stroke="#000000" points="69.2936,-205.5867 72.7935,-215.5867 76.2936,-205.5868 69.2936,-205.5867"/>
</g>
<!-- attribute.n.02 -->
<g id="node5" class="node">
<title>attribute.n.02</title>
<ellipse fill="#b2dfee" stroke="#b2dfee" cx="72.7935" cy="-306" rx="57.6901" ry="18"/>
<text text-anchor="middle" x="72.7935" y="-302.3" font-family="Times,serif" font-size="14.00" fill="#000000">attribute.n.02</text>
</g>
<!-- quality.n.01&#45;&gt;attribute.n.02 -->
<g id="edge4" class="edge">
<title>quality.n.01&#45;&gt;attribute.n.02</title>
<path fill="none" stroke="#000000" d="M72.7935,-252.1686C72.7935,-259.869 72.7935,-269.0257 72.7935,-277.5834"/>
<polygon fill="#000000" stroke="#000000" points="69.2936,-277.5867 72.7935,-287.5867 76.2936,-277.5868 69.2936,-277.5867"/>
</g>
<!-- abstraction.n.06 -->
<g id="node6" class="node">
<title>abstraction.n.06</title>
<ellipse fill="#b2dfee" stroke="#b2dfee" cx="72.7935" cy="-378" rx="67.6881" ry="18"/>
<text text-anchor="middle" x="72.7935" y="-374.3" font-family="Times,serif" font-size="14.00" fill="#000000">abstraction.n.06</text>
</g>
<!-- attribute.n.02&#45;&gt;abstraction.n.06 -->
<g id="edge5" class="edge">
<title>attribute.n.02&#45;&gt;abstraction.n.06</title>
<path fill="none" stroke="#000000" d="M72.7935,-324.1686C72.7935,-331.869 72.7935,-341.0257 72.7935,-349.5834"/>
<polygon fill="#000000" stroke="#000000" points="69.2936,-349.5867 72.7935,-359.5867 76.2936,-349.5868 69.2936,-349.5867"/>
</g>
<!-- entity.n.01 -->
<g id="node7" class="node">
<title>entity.n.01</title>
<ellipse fill="#b2dfee" stroke="#b2dfee" cx="72.7935" cy="-450" rx="48.9926" ry="18"/>
<text text-anchor="middle" x="72.7935" y="-446.3" font-family="Times,serif" font-size="14.00" fill="#000000">entity.n.01</text>
</g>
<!-- abstraction.n.06&#45;&gt;entity.n.01 -->
<g id="edge6" class="edge">
<title>abstraction.n.06&#45;&gt;entity.n.01</title>
<path fill="none" stroke="#000000" d="M72.7935,-396.1686C72.7935,-403.869 72.7935,-413.0257 72.7935,-421.5834"/>
<polygon fill="#000000" stroke="#000000" points="69.2936,-421.5867 72.7935,-431.5867 76.2936,-421.5868 69.2936,-421.5867"/>
</g>
</g>
</svg>
