<?xml version="1.0" encoding="UTF-8" standalone="no"?>
<!DOCTYPE svg PUBLIC "-//W3C//DTD SVG 1.1//EN"
 "http://www.w3.org/Graphics/SVG/1.1/DTD/svg11.dtd">
<!-- Generated by graphviz version 2.40.1 (20161225.0304)
 -->
<!-- Title: unix Pages: 1 -->
<svg width="225pt" height="620pt"
 viewBox="0.00 0.00 225.08 620.00" xmlns="http://www.w3.org/2000/svg" xmlns:xlink="http://www.w3.org/1999/xlink">
<g id="graph0" class="graph" transform="scale(1 1) rotate(0) translate(4 616)">
<title>unix</title>
<polygon fill="#ffffff" stroke="transparent" points="-4,4 -4,-616 221.0807,-616 221.0807,4 -4,4"/>
<!-- fruit.n.01 -->
<g id="node1" class="node">
<title>fruit.n.01</title>
<ellipse fill="#b2dfee" stroke="#b2dfee" cx="108.5404" cy="-18" rx="44.393" ry="18"/>
<text text-anchor="middle" x="108.5404" y="-14.3" font-family="Times,serif" font-size="14.00" fill="#000000">fruit.n.01</text>
</g>
<!-- reproductive_structure.n.01 -->
<g id="node2" class="node">
<title>reproductive_structure.n.01</title>
<ellipse fill="#b2dfee" stroke="#b2dfee" cx="108.5404" cy="-90" rx="108.5808" ry="18"/>
<text text-anchor="middle" x="108.5404" y="-86.3" font-family="Times,serif" font-size="14.00" fill="#000000">reproductive_structure.n.01</text>
</g>
<!-- fruit.n.01&#45;&gt;reproductive_structure.n.01 -->
<g id="edge1" class="edge">
<title>fruit.n.01&#45;&gt;reproductive_structure.n.01</title>
<path fill="none" stroke="#000000" d="M108.5404,-36.1686C108.5404,-43.869 108.5404,-53.0257 108.5404,-61.5834"/>
<polygon fill="#000000" stroke="#000000" points="105.0405,-61.5867 108.5404,-71.5867 112.0405,-61.5868 105.0405,-61.5867"/>
</g>
<!-- plant_organ.n.01 -->
<g id="node3" class="node">
<title>plant_organ.n.01</title>
<ellipse fill="#b2dfee" stroke="#b2dfee" cx="108.5404" cy="-162" rx="70.6878" ry="18"/>
<text text-anchor="middle" x="108.5404" y="-158.3" font-family="Times,serif" font-size="14.00" fill="#000000">plant_organ.n.01</text>
</g>
<!-- reproductive_structure.n.01&#45;&gt;plant_organ.n.01 -->
<g id="edge2" class="edge">
<title>reproductive_structure.n.01&#45;&gt;plant_organ.n.01</title>
<path fill="none" stroke="#000000" d="M108.5404,-108.1686C108.5404,-115.869 108.5404,-125.0257 108.5404,-133.5834"/>
<polygon fill="#000000" stroke="#000000" points="105.0405,-133.5867 108.5404,-143.5867 112.0405,-133.5868 105.0405,-133.5867"/>
</g>
<!-- plant_part.n.01 -->
<g id="node4" class="node">
<title>plant_part.n.01</title>
<ellipse fill="#b2dfee" stroke="#b2dfee" cx="108.5404" cy="-234" rx="64.189" ry="18"/>
<text text-anchor="middle" x="108.5404" y="-230.3" font-family="Times,serif" font-size="14.00" fill="#000000">plant_part.n.01</text>
</g>
<!-- plant_organ.n.01&#45;&gt;plant_part.n.01 -->
<g id="edge3" class="edge">
<title>plant_organ.n.01&#45;&gt;plant_part.n.01</title>
<path fill="none" stroke="#000000" d="M108.5404,-180.1686C108.5404,-187.869 108.5404,-197.0257 108.5404,-205.5834"/>
<polygon fill="#000000" stroke="#000000" points="105.0405,-205.5867 108.5404,-215.5867 112.0405,-205.5868 105.0405,-205.5867"/>
</g>
<!-- natural_object.n.01 -->
<g id="node5" class="node">
<title>natural_object.n.01</title>
<ellipse fill="#b2dfee" stroke="#b2dfee" cx="108.5404" cy="-306" rx="79.0865" ry="18"/>
<text text-anchor="middle" x="108.5404" y="-302.3" font-family="Times,serif" font-size="14.00" fill="#000000">natural_object.n.01</text>
</g>
<!-- plant_part.n.01&#45;&gt;natural_object.n.01 -->
<g id="edge4" class="edge">
<title>plant_part.n.01&#45;&gt;natural_object.n.01</title>
<path fill="none" stroke="#000000" d="M108.5404,-252.1686C108.5404,-259.869 108.5404,-269.0257 108.5404,-277.5834"/>
<polygon fill="#000000" stroke="#000000" points="105.0405,-277.5867 108.5404,-287.5867 112.0405,-277.5868 105.0405,-277.5867"/>
</g>
<!-- whole.n.02 -->
<g id="node6" class="node">
<title>whole.n.02</title>
<ellipse fill="#b2dfee" stroke="#b2dfee" cx="108.5404" cy="-378" rx="50.0912" ry="18"/>
<text text-anchor="middle" x="108.5404" y="-374.3" font-family="Times,serif" font-size="14.00" fill="#000000">whole.n.02</text>
</g>
<!-- natural_object.n.01&#45;&gt;whole.n.02 -->
<g id="edge5" class="edge">
<title>natural_object.n.01&#45;&gt;whole.n.02</title>
<path fill="none" stroke="#000000" d="M108.5404,-324.1686C108.5404,-331.869 108.5404,-341.0257 108.5404,-349.5834"/>
<polygon fill="#000000" stroke="#000000" points="105.0405,-349.5867 108.5404,-359.5867 112.0405,-349.5868 105.0405,-349.5867"/>
</g>
<!-- object.n.01 -->
<g id="node7" class="node">
<title>object.n.01</title>
<ellipse fill="#b2dfee" stroke="#b2dfee" cx="108.5404" cy="-450" rx="50.0912" ry="18"/>
<text text-anchor="middle" x="108.5404" y="-446.3" font-family="Times,serif" font-size="14.00" fill="#000000">object.n.01</text>
</g>
<!-- whole.n.02&#45;&gt;object.n.01 -->
<g id="edge6" class="edge">
<title>whole.n.02&#45;&gt;object.n.01</title>
<path fill="none" stroke="#000000" d="M108.5404,-396.1686C108.5404,-403.869 108.5404,-413.0257 108.5404,-421.5834"/>
<polygon fill="#000000" stroke="#000000" points="105.0405,-421.5867 108.5404,-431.5867 112.0405,-421.5868 105.0405,-421.5867"/>
</g>
<!-- physical_entity.n.01 -->
<g id="node8" class="node">
<title>physical_entity.n.01</title>
<ellipse fill="#b2dfee" stroke="#b2dfee" cx="108.5404" cy="-522" rx="82.5854" ry="18"/>
<text text-anchor="middle" x="108.5404" y="-518.3" font-family="Times,serif" font-size="14.00" fill="#000000">physical_entity.n.01</text>
</g>
<!-- object.n.01&#45;&gt;physical_entity.n.01 -->
<g id="edge7" class="edge">
<title>object.n.01&#45;&gt;physical_entity.n.01</title>
<path fill="none" stroke="#000000" d="M108.5404,-468.1686C108.5404,-475.869 108.5404,-485.0257 108.5404,-493.5834"/>
<polygon fill="#000000" stroke="#000000" points="105.0405,-493.5867 108.5404,-503.5867 112.0405,-493.5868 105.0405,-493.5867"/>
</g>
<!-- entity.n.01 -->
<g id="node9" class="node">
<title>entity.n.01</title>
<ellipse fill="#b2dfee" stroke="#b2dfee" cx="108.5404" cy="-594" rx="48.9926" ry="18"/>
<text text-anchor="middle" x="108.5404" y="-590.3" font-family="Times,serif" font-size="14.00" fill="#000000">entity.n.01</text>
</g>
<!-- physical_entity.n.01&#45;&gt;entity.n.01 -->
<g id="edge8" class="edge">
<title>physical_entity.n.01&#45;&gt;entity.n.01</title>
<path fill="none" stroke="#000000" d="M108.5404,-540.1686C108.5404,-547.869 108.5404,-557.0257 108.5404,-565.5834"/>
<polygon fill="#000000" stroke="#000000" points="105.0405,-565.5867 108.5404,-575.5867 112.0405,-565.5868 105.0405,-565.5867"/>
</g>
</g>
</svg>
