<?xml version="1.0" encoding="UTF-8" standalone="no"?>
<!DOCTYPE svg PUBLIC "-//W3C//DTD SVG 1.1//EN"
 "http://www.w3.org/Graphics/SVG/1.1/DTD/svg11.dtd">
<!-- Generated by graphviz version 2.40.1 (20161225.0304)
 -->
<!-- Title: unix Pages: 1 -->
<svg width="173pt" height="548pt"
 viewBox="0.00 0.00 173.09 548.00" xmlns="http://www.w3.org/2000/svg" xmlns:xlink="http://www.w3.org/1999/xlink">
<g id="graph0" class="graph" transform="scale(1 1) rotate(0) translate(4 544)">
<title>unix</title>
<polygon fill="#ffffff" stroke="transparent" points="-4,4 -4,-544 169.0854,-544 169.0854,4 -4,4"/>
<!-- furniture.n.01 -->
<g id="node1" class="node">
<title>furniture.n.01</title>
<ellipse fill="#b2dfee" stroke="#b2dfee" cx="82.5427" cy="-18" rx="59.5901" ry="18"/>
<text text-anchor="middle" x="82.5427" y="-14.3" font-family="Times,serif" font-size="14.00" fill="#000000">furniture.n.01</text>
</g>
<!-- furnishing.n.02 -->
<g id="node2" class="node">
<title>furnishing.n.02</title>
<ellipse fill="#b2dfee" stroke="#b2dfee" cx="82.5427" cy="-90" rx="64.9885" ry="18"/>
<text text-anchor="middle" x="82.5427" y="-86.3" font-family="Times,serif" font-size="14.00" fill="#000000">furnishing.n.02</text>
</g>
<!-- furniture.n.01&#45;&gt;furnishing.n.02 -->
<g id="edge1" class="edge">
<title>furniture.n.01&#45;&gt;furnishing.n.02</title>
<path fill="none" stroke="#000000" d="M82.5427,-36.1686C82.5427,-43.869 82.5427,-53.0257 82.5427,-61.5834"/>
<polygon fill="#000000" stroke="#000000" points="79.0428,-61.5867 82.5427,-71.5867 86.0428,-61.5868 79.0428,-61.5867"/>
</g>
<!-- instrumentality.n.03 -->
<g id="node3" class="node">
<title>instrumentality.n.03</title>
<ellipse fill="#b2dfee" stroke="#b2dfee" cx="82.5427" cy="-162" rx="82.5854" ry="18"/>
<text text-anchor="middle" x="82.5427" y="-158.3" font-family="Times,serif" font-size="14.00" fill="#000000">instrumentality.n.03</text>
</g>
<!-- furnishing.n.02&#45;&gt;instrumentality.n.03 -->
<g id="edge2" class="edge">
<title>furnishing.n.02&#45;&gt;instrumentality.n.03</title>
<path fill="none" stroke="#000000" d="M82.5427,-108.1686C82.5427,-115.869 82.5427,-125.0257 82.5427,-133.5834"/>
<polygon fill="#000000" stroke="#000000" points="79.0428,-133.5867 82.5427,-143.5867 86.0428,-133.5868 79.0428,-133.5867"/>
</g>
<!-- artifact.n.01 -->
<g id="node4" class="node">
<title>artifact.n.01</title>
<ellipse fill="#b2dfee" stroke="#b2dfee" cx="82.5427" cy="-234" rx="53.8905" ry="18"/>
<text text-anchor="middle" x="82.5427" y="-230.3" font-family="Times,serif" font-size="14.00" fill="#000000">artifact.n.01</text>
</g>
<!-- instrumentality.n.03&#45;&gt;artifact.n.01 -->
<g id="edge3" class="edge">
<title>instrumentality.n.03&#45;&gt;artifact.n.01</title>
<path fill="none" stroke="#000000" d="M82.5427,-180.1686C82.5427,-187.869 82.5427,-197.0257 82.5427,-205.5834"/>
<polygon fill="#000000" stroke="#000000" points="79.0428,-205.5867 82.5427,-215.5867 86.0428,-205.5868 79.0428,-205.5867"/>
</g>
<!-- whole.n.02 -->
<g id="node5" class="node">
<title>whole.n.02</title>
<ellipse fill="#b2dfee" stroke="#b2dfee" cx="82.5427" cy="-306" rx="50.0912" ry="18"/>
<text text-anchor="middle" x="82.5427" y="-302.3" font-family="Times,serif" font-size="14.00" fill="#000000">whole.n.02</text>
</g>
<!-- artifact.n.01&#45;&gt;whole.n.02 -->
<g id="edge4" class="edge">
<title>artifact.n.01&#45;&gt;whole.n.02</title>
<path fill="none" stroke="#000000" d="M82.5427,-252.1686C82.5427,-259.869 82.5427,-269.0257 82.5427,-277.5834"/>
<polygon fill="#000000" stroke="#000000" points="79.0428,-277.5867 82.5427,-287.5867 86.0428,-277.5868 79.0428,-277.5867"/>
</g>
<!-- object.n.01 -->
<g id="node6" class="node">
<title>object.n.01</title>
<ellipse fill="#b2dfee" stroke="#b2dfee" cx="82.5427" cy="-378" rx="50.0912" ry="18"/>
<text text-anchor="middle" x="82.5427" y="-374.3" font-family="Times,serif" font-size="14.00" fill="#000000">object.n.01</text>
</g>
<!-- whole.n.02&#45;&gt;object.n.01 -->
<g id="edge5" class="edge">
<title>whole.n.02&#45;&gt;object.n.01</title>
<path fill="none" stroke="#000000" d="M82.5427,-324.1686C82.5427,-331.869 82.5427,-341.0257 82.5427,-349.5834"/>
<polygon fill="#000000" stroke="#000000" points="79.0428,-349.5867 82.5427,-359.5867 86.0428,-349.5868 79.0428,-349.5867"/>
</g>
<!-- physical_entity.n.01 -->
<g id="node7" class="node">
<title>physical_entity.n.01</title>
<ellipse fill="#b2dfee" stroke="#b2dfee" cx="82.5427" cy="-450" rx="82.5854" ry="18"/>
<text text-anchor="middle" x="82.5427" y="-446.3" font-family="Times,serif" font-size="14.00" fill="#000000">physical_entity.n.01</text>
</g>
<!-- object.n.01&#45;&gt;physical_entity.n.01 -->
<g id="edge6" class="edge">
<title>object.n.01&#45;&gt;physical_entity.n.01</title>
<path fill="none" stroke="#000000" d="M82.5427,-396.1686C82.5427,-403.869 82.5427,-413.0257 82.5427,-421.5834"/>
<polygon fill="#000000" stroke="#000000" points="79.0428,-421.5867 82.5427,-431.5867 86.0428,-421.5868 79.0428,-421.5867"/>
</g>
<!-- entity.n.01 -->
<g id="node8" class="node">
<title>entity.n.01</title>
<ellipse fill="#b2dfee" stroke="#b2dfee" cx="82.5427" cy="-522" rx="48.9926" ry="18"/>
<text text-anchor="middle" x="82.5427" y="-518.3" font-family="Times,serif" font-size="14.00" fill="#000000">entity.n.01</text>
</g>
<!-- physical_entity.n.01&#45;&gt;entity.n.01 -->
<g id="edge7" class="edge">
<title>physical_entity.n.01&#45;&gt;entity.n.01</title>
<path fill="none" stroke="#000000" d="M82.5427,-468.1686C82.5427,-475.869 82.5427,-485.0257 82.5427,-493.5834"/>
<polygon fill="#000000" stroke="#000000" points="79.0428,-493.5867 82.5427,-503.5867 86.0428,-493.5868 79.0428,-493.5867"/>
</g>
</g>
</svg>
