<?xml version="1.0" encoding="UTF-8" standalone="no"?>
<!DOCTYPE svg PUBLIC "-//W3C//DTD SVG 1.1//EN"
 "http://www.w3.org/Graphics/SVG/1.1/DTD/svg11.dtd">
<!-- Generated by graphviz version 2.40.1 (20161225.0304)
 -->
<!-- Title: unix Pages: 1 -->
<svg width="326pt" height="404pt"
 viewBox="0.00 0.00 326.14 404.00" xmlns="http://www.w3.org/2000/svg" xmlns:xlink="http://www.w3.org/1999/xlink">
<g id="graph0" class="graph" transform="scale(1 1) rotate(0) translate(4 400)">
<title>unix</title>
<polygon fill="#ffffff" stroke="transparent" points="-4,4 -4,-400 322.1367,-400 322.1367,4 -4,4"/>
<!-- material.n.01 -->
<g id="node1" class="node">
<title>material.n.01</title>
<ellipse fill="#b2dfee" stroke="#b2dfee" cx="180.5427" cy="-18" rx="57.6901" ry="18"/>
<text text-anchor="middle" x="180.5427" y="-14.3" font-family="Times,serif" font-size="14.00" fill="#000000">material.n.01</text>
</g>
<!-- substance.n.01 -->
<g id="node2" class="node">
<title>substance.n.01</title>
<ellipse fill="#b2dfee" stroke="#b2dfee" cx="180.5427" cy="-90" rx="63.0888" ry="18"/>
<text text-anchor="middle" x="180.5427" y="-86.3" font-family="Times,serif" font-size="14.00" fill="#000000">substance.n.01</text>
</g>
<!-- material.n.01&#45;&gt;substance.n.01 -->
<g id="edge1" class="edge">
<title>material.n.01&#45;&gt;substance.n.01</title>
<path fill="none" stroke="#000000" d="M180.5427,-36.1686C180.5427,-43.869 180.5427,-53.0257 180.5427,-61.5834"/>
<polygon fill="#000000" stroke="#000000" points="177.0428,-61.5867 180.5427,-71.5867 184.0428,-61.5868 177.0428,-61.5867"/>
</g>
<!-- matter.n.03 -->
<g id="node3" class="node">
<title>matter.n.03</title>
<ellipse fill="#b2dfee" stroke="#b2dfee" cx="124.5427" cy="-162" rx="51.9908" ry="18"/>
<text text-anchor="middle" x="124.5427" y="-158.3" font-family="Times,serif" font-size="14.00" fill="#000000">matter.n.03</text>
</g>
<!-- substance.n.01&#45;&gt;matter.n.03 -->
<g id="edge2" class="edge">
<title>substance.n.01&#45;&gt;matter.n.03</title>
<path fill="none" stroke="#000000" d="M166.7,-107.7978C159.9863,-116.4296 151.7991,-126.9561 144.4317,-136.4283"/>
<polygon fill="#000000" stroke="#000000" points="141.6028,-134.3646 138.2261,-144.407 147.1283,-138.6622 141.6028,-134.3646"/>
</g>
<!-- part.n.01 -->
<g id="node6" class="node">
<title>part.n.01</title>
<ellipse fill="#b2dfee" stroke="#b2dfee" cx="243.5427" cy="-162" rx="42.4939" ry="18"/>
<text text-anchor="middle" x="243.5427" y="-158.3" font-family="Times,serif" font-size="14.00" fill="#000000">part.n.01</text>
</g>
<!-- substance.n.01&#45;&gt;part.n.01 -->
<g id="edge5" class="edge">
<title>substance.n.01&#45;&gt;part.n.01</title>
<path fill="none" stroke="#000000" d="M196.1157,-107.7978C203.8587,-116.6469 213.3441,-127.4873 221.7917,-137.1417"/>
<polygon fill="#000000" stroke="#000000" points="219.3635,-139.6818 228.5826,-144.9028 224.6316,-135.0722 219.3635,-139.6818"/>
</g>
<!-- physical_entity.n.01 -->
<g id="node4" class="node">
<title>physical_entity.n.01</title>
<ellipse fill="#b2dfee" stroke="#b2dfee" cx="82.5427" cy="-306" rx="82.5854" ry="18"/>
<text text-anchor="middle" x="82.5427" y="-302.3" font-family="Times,serif" font-size="14.00" fill="#000000">physical_entity.n.01</text>
</g>
<!-- matter.n.03&#45;&gt;physical_entity.n.01 -->
<g id="edge3" class="edge">
<title>matter.n.03&#45;&gt;physical_entity.n.01</title>
<path fill="none" stroke="#000000" d="M119.3083,-179.9465C112.1402,-204.5226 99.1971,-248.8992 90.7378,-277.9026"/>
<polygon fill="#000000" stroke="#000000" points="87.2831,-277.2473 87.8431,-287.8273 94.0031,-279.2073 87.2831,-277.2473"/>
</g>
<!-- entity.n.01 -->
<g id="node5" class="node">
<title>entity.n.01</title>
<ellipse fill="#b2dfee" stroke="#b2dfee" cx="166.5427" cy="-378" rx="48.9926" ry="18"/>
<text text-anchor="middle" x="166.5427" y="-374.3" font-family="Times,serif" font-size="14.00" fill="#000000">entity.n.01</text>
</g>
<!-- physical_entity.n.01&#45;&gt;entity.n.01 -->
<g id="edge4" class="edge">
<title>physical_entity.n.01&#45;&gt;entity.n.01</title>
<path fill="none" stroke="#000000" d="M103.3067,-323.7978C114.2016,-333.1362 127.6836,-344.6922 139.3965,-354.7318"/>
<polygon fill="#000000" stroke="#000000" points="137.2988,-357.5436 147.1692,-361.3942 141.8544,-352.2288 137.2988,-357.5436"/>
</g>
<!-- relation.n.01 -->
<g id="node7" class="node">
<title>relation.n.01</title>
<ellipse fill="#b2dfee" stroke="#b2dfee" cx="246.5427" cy="-234" rx="55.7903" ry="18"/>
<text text-anchor="middle" x="246.5427" y="-230.3" font-family="Times,serif" font-size="14.00" fill="#000000">relation.n.01</text>
</g>
<!-- part.n.01&#45;&gt;relation.n.01 -->
<g id="edge6" class="edge">
<title>part.n.01&#45;&gt;relation.n.01</title>
<path fill="none" stroke="#000000" d="M244.2997,-180.1686C244.6206,-187.869 245.0021,-197.0257 245.3586,-205.5834"/>
<polygon fill="#000000" stroke="#000000" points="241.8621,-205.7411 245.7755,-215.5867 248.856,-205.4497 241.8621,-205.7411"/>
</g>
<!-- abstraction.n.06 -->
<g id="node8" class="node">
<title>abstraction.n.06</title>
<ellipse fill="#b2dfee" stroke="#b2dfee" cx="250.5427" cy="-306" rx="67.6881" ry="18"/>
<text text-anchor="middle" x="250.5427" y="-302.3" font-family="Times,serif" font-size="14.00" fill="#000000">abstraction.n.06</text>
</g>
<!-- relation.n.01&#45;&gt;abstraction.n.06 -->
<g id="edge7" class="edge">
<title>relation.n.01&#45;&gt;abstraction.n.06</title>
<path fill="none" stroke="#000000" d="M247.552,-252.1686C247.9798,-259.869 248.4885,-269.0257 248.964,-277.5834"/>
<polygon fill="#000000" stroke="#000000" points="245.4703,-277.7963 249.5197,-287.5867 252.4595,-277.408 245.4703,-277.7963"/>
</g>
<!-- abstraction.n.06&#45;&gt;entity.n.01 -->
<g id="edge8" class="edge">
<title>abstraction.n.06&#45;&gt;entity.n.01</title>
<path fill="none" stroke="#000000" d="M230.2086,-323.4292C219.3202,-332.7621 205.7565,-344.3881 193.9498,-354.5082"/>
<polygon fill="#000000" stroke="#000000" points="191.4259,-352.0617 186.1111,-361.2271 195.9814,-357.3765 191.4259,-352.0617"/>
</g>
</g>
</svg>
