<?xml version="1.0" encoding="UTF-8" standalone="no"?>
<!DOCTYPE svg PUBLIC "-//W3C//DTD SVG 1.1//EN"
 "http://www.w3.org/Graphics/SVG/1.1/DTD/svg11.dtd">
<!-- Generated by graphviz version 2.40.1 (20161225.0304)
 -->
<!-- Title: unix Pages: 1 -->
<svg width="199pt" height="476pt"
 viewBox="0.00 0.00 199.08 476.00" xmlns="http://www.w3.org/2000/svg" xmlns:xlink="http://www.w3.org/1999/xlink">
<g id="graph0" class="graph" transform="scale(1 1) rotate(0) translate(4 472)">
<title>unix</title>
<polygon fill="#ffffff" stroke="transparent" points="-4,4 -4,-472 195.083,-472 195.083,4 -4,4"/>
<!-- pathological_state.n.01 -->
<g id="node1" class="node">
<title>pathological_state.n.01</title>
<ellipse fill="#b2dfee" stroke="#b2dfee" cx="95.5415" cy="-18" rx="92.8835" ry="18"/>
<text text-anchor="middle" x="95.5415" y="-14.3" font-family="Times,serif" font-size="14.00" fill="#000000">pathological_state.n.01</text>
</g>
<!-- physical_condition.n.01 -->
<g id="node2" class="node">
<title>physical_condition.n.01</title>
<ellipse fill="#b2dfee" stroke="#b2dfee" cx="95.5415" cy="-90" rx="95.5831" ry="18"/>
<text text-anchor="middle" x="95.5415" y="-86.3" font-family="Times,serif" font-size="14.00" fill="#000000">physical_condition.n.01</text>
</g>
<!-- pathological_state.n.01&#45;&gt;physical_condition.n.01 -->
<g id="edge1" class="edge">
<title>pathological_state.n.01&#45;&gt;physical_condition.n.01</title>
<path fill="none" stroke="#000000" d="M95.5415,-36.1686C95.5415,-43.869 95.5415,-53.0257 95.5415,-61.5834"/>
<polygon fill="#000000" stroke="#000000" points="92.0416,-61.5867 95.5415,-71.5867 99.0416,-61.5868 92.0416,-61.5867"/>
</g>
<!-- condition.n.01 -->
<g id="node3" class="node">
<title>condition.n.01</title>
<ellipse fill="#b2dfee" stroke="#b2dfee" cx="95.5415" cy="-162" rx="61.99" ry="18"/>
<text text-anchor="middle" x="95.5415" y="-158.3" font-family="Times,serif" font-size="14.00" fill="#000000">condition.n.01</text>
</g>
<!-- physical_condition.n.01&#45;&gt;condition.n.01 -->
<g id="edge2" class="edge">
<title>physical_condition.n.01&#45;&gt;condition.n.01</title>
<path fill="none" stroke="#000000" d="M95.5415,-108.1686C95.5415,-115.869 95.5415,-125.0257 95.5415,-133.5834"/>
<polygon fill="#000000" stroke="#000000" points="92.0416,-133.5867 95.5415,-143.5867 99.0416,-133.5868 92.0416,-133.5867"/>
</g>
<!-- state.n.02 -->
<g id="node4" class="node">
<title>state.n.02</title>
<ellipse fill="#b2dfee" stroke="#b2dfee" cx="95.5415" cy="-234" rx="44.6926" ry="18"/>
<text text-anchor="middle" x="95.5415" y="-230.3" font-family="Times,serif" font-size="14.00" fill="#000000">state.n.02</text>
</g>
<!-- condition.n.01&#45;&gt;state.n.02 -->
<g id="edge3" class="edge">
<title>condition.n.01&#45;&gt;state.n.02</title>
<path fill="none" stroke="#000000" d="M95.5415,-180.1686C95.5415,-187.869 95.5415,-197.0257 95.5415,-205.5834"/>
<polygon fill="#000000" stroke="#000000" points="92.0416,-205.5867 95.5415,-215.5867 99.0416,-205.5868 92.0416,-205.5867"/>
</g>
<!-- attribute.n.02 -->
<g id="node5" class="node">
<title>attribute.n.02</title>
<ellipse fill="#b2dfee" stroke="#b2dfee" cx="95.5415" cy="-306" rx="57.6901" ry="18"/>
<text text-anchor="middle" x="95.5415" y="-302.3" font-family="Times,serif" font-size="14.00" fill="#000000">attribute.n.02</text>
</g>
<!-- state.n.02&#45;&gt;attribute.n.02 -->
<g id="edge4" class="edge">
<title>state.n.02&#45;&gt;attribute.n.02</title>
<path fill="none" stroke="#000000" d="M95.5415,-252.1686C95.5415,-259.869 95.5415,-269.0257 95.5415,-277.5834"/>
<polygon fill="#000000" stroke="#000000" points="92.0416,-277.5867 95.5415,-287.5867 99.0416,-277.5868 92.0416,-277.5867"/>
</g>
<!-- abstraction.n.06 -->
<g id="node6" class="node">
<title>abstraction.n.06</title>
<ellipse fill="#b2dfee" stroke="#b2dfee" cx="95.5415" cy="-378" rx="67.6881" ry="18"/>
<text text-anchor="middle" x="95.5415" y="-374.3" font-family="Times,serif" font-size="14.00" fill="#000000">abstraction.n.06</text>
</g>
<!-- attribute.n.02&#45;&gt;abstraction.n.06 -->
<g id="edge5" class="edge">
<title>attribute.n.02&#45;&gt;abstraction.n.06</title>
<path fill="none" stroke="#000000" d="M95.5415,-324.1686C95.5415,-331.869 95.5415,-341.0257 95.5415,-349.5834"/>
<polygon fill="#000000" stroke="#000000" points="92.0416,-349.5867 95.5415,-359.5867 99.0416,-349.5868 92.0416,-349.5867"/>
</g>
<!-- entity.n.01 -->
<g id="node7" class="node">
<title>entity.n.01</title>
<ellipse fill="#b2dfee" stroke="#b2dfee" cx="95.5415" cy="-450" rx="48.9926" ry="18"/>
<text text-anchor="middle" x="95.5415" y="-446.3" font-family="Times,serif" font-size="14.00" fill="#000000">entity.n.01</text>
</g>
<!-- abstraction.n.06&#45;&gt;entity.n.01 -->
<g id="edge6" class="edge">
<title>abstraction.n.06&#45;&gt;entity.n.01</title>
<path fill="none" stroke="#000000" d="M95.5415,-396.1686C95.5415,-403.869 95.5415,-413.0257 95.5415,-421.5834"/>
<polygon fill="#000000" stroke="#000000" points="92.0416,-421.5867 95.5415,-431.5867 99.0416,-421.5868 92.0416,-421.5867"/>
</g>
</g>
</svg>
