<?xml version="1.0" encoding="UTF-8" standalone="no"?>
<!DOCTYPE svg PUBLIC "-//W3C//DTD SVG 1.1//EN"
 "http://www.w3.org/Graphics/SVG/1.1/DTD/svg11.dtd">
<!-- Generated by graphviz version 2.40.1 (20161225.0304)
 -->
<!-- Title: unix Pages: 1 -->
<svg width="318pt" height="476pt"
 viewBox="0.00 0.00 317.59 476.00" xmlns="http://www.w3.org/2000/svg" xmlns:xlink="http://www.w3.org/1999/xlink">
<g id="graph0" class="graph" transform="scale(1 1) rotate(0) translate(4 472)">
<title>unix</title>
<polygon fill="#ffffff" stroke="transparent" points="-4,4 -4,-472 313.5871,-472 313.5871,4 -4,4"/>
<!-- person.n.01 -->
<g id="node1" class="node">
<title>person.n.01</title>
<ellipse fill="#b2dfee" stroke="#b2dfee" cx="156.0934" cy="-18" rx="51.9908" ry="18"/>
<text text-anchor="middle" x="156.0934" y="-14.3" font-family="Times,serif" font-size="14.00" fill="#000000">person.n.01</text>
</g>
<!-- causal_agent.n.01 -->
<g id="node2" class="node">
<title>causal_agent.n.01</title>
<ellipse fill="#b2dfee" stroke="#b2dfee" cx="74.0934" cy="-162" rx="74.187" ry="18"/>
<text text-anchor="middle" x="74.0934" y="-158.3" font-family="Times,serif" font-size="14.00" fill="#000000">causal_agent.n.01</text>
</g>
<!-- person.n.01&#45;&gt;causal_agent.n.01 -->
<g id="edge1" class="edge">
<title>person.n.01&#45;&gt;causal_agent.n.01</title>
<path fill="none" stroke="#000000" d="M145.8739,-35.9465C131.695,-60.846 105.9422,-106.0705 89.446,-135.0394"/>
<polygon fill="#000000" stroke="#000000" points="86.3488,-133.4055 84.4418,-143.8273 92.4317,-136.8694 86.3488,-133.4055"/>
</g>
<!-- organism.n.01 -->
<g id="node5" class="node">
<title>organism.n.01</title>
<ellipse fill="#b2dfee" stroke="#b2dfee" cx="219.0934" cy="-90" rx="61.99" ry="18"/>
<text text-anchor="middle" x="219.0934" y="-86.3" font-family="Times,serif" font-size="14.00" fill="#000000">organism.n.01</text>
</g>
<!-- person.n.01&#45;&gt;organism.n.01 -->
<g id="edge4" class="edge">
<title>person.n.01&#45;&gt;organism.n.01</title>
<path fill="none" stroke="#000000" d="M171.344,-35.4292C179.0255,-44.2081 188.4823,-55.0159 196.9478,-64.6907"/>
<polygon fill="#000000" stroke="#000000" points="194.5459,-67.2607 203.765,-72.4818 199.8139,-62.6512 194.5459,-67.2607"/>
</g>
<!-- physical_entity.n.01 -->
<g id="node3" class="node">
<title>physical_entity.n.01</title>
<ellipse fill="#b2dfee" stroke="#b2dfee" cx="156.0934" cy="-378" rx="82.5854" ry="18"/>
<text text-anchor="middle" x="156.0934" y="-374.3" font-family="Times,serif" font-size="14.00" fill="#000000">physical_entity.n.01</text>
</g>
<!-- causal_agent.n.01&#45;&gt;physical_entity.n.01 -->
<g id="edge2" class="edge">
<title>causal_agent.n.01&#45;&gt;physical_entity.n.01</title>
<path fill="none" stroke="#000000" d="M80.9437,-180.0445C95.2936,-217.8444 128.589,-305.5494 145.6322,-350.4436"/>
<polygon fill="#000000" stroke="#000000" points="142.3837,-351.7482 149.205,-359.8549 148.928,-349.2637 142.3837,-351.7482"/>
</g>
<!-- entity.n.01 -->
<g id="node4" class="node">
<title>entity.n.01</title>
<ellipse fill="#b2dfee" stroke="#b2dfee" cx="156.0934" cy="-450" rx="48.9926" ry="18"/>
<text text-anchor="middle" x="156.0934" y="-446.3" font-family="Times,serif" font-size="14.00" fill="#000000">entity.n.01</text>
</g>
<!-- physical_entity.n.01&#45;&gt;entity.n.01 -->
<g id="edge3" class="edge">
<title>physical_entity.n.01&#45;&gt;entity.n.01</title>
<path fill="none" stroke="#000000" d="M156.0934,-396.1686C156.0934,-403.869 156.0934,-413.0257 156.0934,-421.5834"/>
<polygon fill="#000000" stroke="#000000" points="152.5935,-421.5867 156.0934,-431.5867 159.5935,-421.5868 152.5935,-421.5867"/>
</g>
<!-- living_thing.n.01 -->
<g id="node6" class="node">
<title>living_thing.n.01</title>
<ellipse fill="#b2dfee" stroke="#b2dfee" cx="238.0934" cy="-162" rx="71.4873" ry="18"/>
<text text-anchor="middle" x="238.0934" y="-158.3" font-family="Times,serif" font-size="14.00" fill="#000000">living_thing.n.01</text>
</g>
<!-- organism.n.01&#45;&gt;living_thing.n.01 -->
<g id="edge5" class="edge">
<title>organism.n.01&#45;&gt;living_thing.n.01</title>
<path fill="none" stroke="#000000" d="M223.8879,-108.1686C225.9423,-115.9537 228.3895,-125.2271 230.669,-133.8653"/>
<polygon fill="#000000" stroke="#000000" points="227.2986,-134.8108 233.2344,-143.5867 234.0669,-133.0247 227.2986,-134.8108"/>
</g>
<!-- whole.n.02 -->
<g id="node7" class="node">
<title>whole.n.02</title>
<ellipse fill="#b2dfee" stroke="#b2dfee" cx="216.0934" cy="-234" rx="50.0912" ry="18"/>
<text text-anchor="middle" x="216.0934" y="-230.3" font-family="Times,serif" font-size="14.00" fill="#000000">whole.n.02</text>
</g>
<!-- living_thing.n.01&#45;&gt;whole.n.02 -->
<g id="edge6" class="edge">
<title>living_thing.n.01&#45;&gt;whole.n.02</title>
<path fill="none" stroke="#000000" d="M232.5419,-180.1686C230.1265,-188.0734 227.2423,-197.5128 224.5685,-206.2635"/>
<polygon fill="#000000" stroke="#000000" points="221.142,-205.5003 221.567,-216.0866 227.8365,-207.5459 221.142,-205.5003"/>
</g>
<!-- object.n.01 -->
<g id="node8" class="node">
<title>object.n.01</title>
<ellipse fill="#b2dfee" stroke="#b2dfee" cx="205.0934" cy="-306" rx="50.0912" ry="18"/>
<text text-anchor="middle" x="205.0934" y="-302.3" font-family="Times,serif" font-size="14.00" fill="#000000">object.n.01</text>
</g>
<!-- whole.n.02&#45;&gt;object.n.01 -->
<g id="edge7" class="edge">
<title>whole.n.02&#45;&gt;object.n.01</title>
<path fill="none" stroke="#000000" d="M213.3177,-252.1686C212.1412,-259.869 210.7423,-269.0257 209.4349,-277.5834"/>
<polygon fill="#000000" stroke="#000000" points="205.957,-277.1728 207.9066,-287.5867 212.8768,-278.2301 205.957,-277.1728"/>
</g>
<!-- object.n.01&#45;&gt;physical_entity.n.01 -->
<g id="edge8" class="edge">
<title>object.n.01&#45;&gt;physical_entity.n.01</title>
<path fill="none" stroke="#000000" d="M192.9811,-323.7978C187.2683,-332.1921 180.336,-342.3782 174.03,-351.6442"/>
<polygon fill="#000000" stroke="#000000" points="170.9691,-349.9211 168.2363,-360.1575 176.7561,-353.8595 170.9691,-349.9211"/>
</g>
</g>
</svg>
