<?xml version="1.0" encoding="UTF-8" standalone="no"?>
<!DOCTYPE svg PUBLIC "-//W3C//DTD SVG 1.1//EN"
 "http://www.w3.org/Graphics/SVG/1.1/DTD/svg11.dtd">
<!-- Generated by graphviz version 2.40.1 (20161225.0304)
 -->
<!-- Title: unix Pages: 1 -->
<svg width="155pt" height="404pt"
 viewBox="0.00 0.00 154.89 404.00" xmlns="http://www.w3.org/2000/svg" xmlns:xlink="http://www.w3.org/1999/xlink">
<g id="graph0" class="graph" transform="scale(1 1) rotate(0) translate(4 400)">
<title>unix</title>
<polygon fill="#ffffff" stroke="transparent" points="-4,4 -4,-400 150.887,-400 150.887,4 -4,4"/>
<!-- plane_figure.n.01 -->
<g id="node1" class="node">
<title>plane_figure.n.01</title>
<ellipse fill="#b2dfee" stroke="#b2dfee" cx="73.4435" cy="-18" rx="73.387" ry="18"/>
<text text-anchor="middle" x="73.4435" y="-14.3" font-family="Times,serif" font-size="14.00" fill="#000000">plane_figure.n.01</text>
</g>
<!-- figure.n.06 -->
<g id="node2" class="node">
<title>figure.n.06</title>
<ellipse fill="#b2dfee" stroke="#b2dfee" cx="73.4435" cy="-90" rx="50.0912" ry="18"/>
<text text-anchor="middle" x="73.4435" y="-86.3" font-family="Times,serif" font-size="14.00" fill="#000000">figure.n.06</text>
</g>
<!-- plane_figure.n.01&#45;&gt;figure.n.06 -->
<g id="edge1" class="edge">
<title>plane_figure.n.01&#45;&gt;figure.n.06</title>
<path fill="none" stroke="#000000" d="M73.4435,-36.1686C73.4435,-43.869 73.4435,-53.0257 73.4435,-61.5834"/>
<polygon fill="#000000" stroke="#000000" points="69.9436,-61.5867 73.4435,-71.5867 76.9436,-61.5868 69.9436,-61.5867"/>
</g>
<!-- shape.n.02 -->
<g id="node3" class="node">
<title>shape.n.02</title>
<ellipse fill="#b2dfee" stroke="#b2dfee" cx="73.4435" cy="-162" rx="48.9926" ry="18"/>
<text text-anchor="middle" x="73.4435" y="-158.3" font-family="Times,serif" font-size="14.00" fill="#000000">shape.n.02</text>
</g>
<!-- figure.n.06&#45;&gt;shape.n.02 -->
<g id="edge2" class="edge">
<title>figure.n.06&#45;&gt;shape.n.02</title>
<path fill="none" stroke="#000000" d="M73.4435,-108.1686C73.4435,-115.869 73.4435,-125.0257 73.4435,-133.5834"/>
<polygon fill="#000000" stroke="#000000" points="69.9436,-133.5867 73.4435,-143.5867 76.9436,-133.5868 69.9436,-133.5867"/>
</g>
<!-- attribute.n.02 -->
<g id="node4" class="node">
<title>attribute.n.02</title>
<ellipse fill="#b2dfee" stroke="#b2dfee" cx="73.4435" cy="-234" rx="57.6901" ry="18"/>
<text text-anchor="middle" x="73.4435" y="-230.3" font-family="Times,serif" font-size="14.00" fill="#000000">attribute.n.02</text>
</g>
<!-- shape.n.02&#45;&gt;attribute.n.02 -->
<g id="edge3" class="edge">
<title>shape.n.02&#45;&gt;attribute.n.02</title>
<path fill="none" stroke="#000000" d="M73.4435,-180.1686C73.4435,-187.869 73.4435,-197.0257 73.4435,-205.5834"/>
<polygon fill="#000000" stroke="#000000" points="69.9436,-205.5867 73.4435,-215.5867 76.9436,-205.5868 69.9436,-205.5867"/>
</g>
<!-- abstraction.n.06 -->
<g id="node5" class="node">
<title>abstraction.n.06</title>
<ellipse fill="#b2dfee" stroke="#b2dfee" cx="73.4435" cy="-306" rx="67.6881" ry="18"/>
<text text-anchor="middle" x="73.4435" y="-302.3" font-family="Times,serif" font-size="14.00" fill="#000000">abstraction.n.06</text>
</g>
<!-- attribute.n.02&#45;&gt;abstraction.n.06 -->
<g id="edge4" class="edge">
<title>attribute.n.02&#45;&gt;abstraction.n.06</title>
<path fill="none" stroke="#000000" d="M73.4435,-252.1686C73.4435,-259.869 73.4435,-269.0257 73.4435,-277.5834"/>
<polygon fill="#000000" stroke="#000000" points="69.9436,-277.5867 73.4435,-287.5867 76.9436,-277.5868 69.9436,-277.5867"/>
</g>
<!-- entity.n.01 -->
<g id="node6" class="node">
<title>entity.n.01</title>
<ellipse fill="#b2dfee" stroke="#b2dfee" cx="73.4435" cy="-378" rx="48.9926" ry="18"/>
<text text-anchor="middle" x="73.4435" y="-374.3" font-family="Times,serif" font-size="14.00" fill="#000000">entity.n.01</text>
</g>
<!-- abstraction.n.06&#45;&gt;entity.n.01 -->
<g id="edge5" class="edge">
<title>abstraction.n.06&#45;&gt;entity.n.01</title>
<path fill="none" stroke="#000000" d="M73.4435,-324.1686C73.4435,-331.869 73.4435,-341.0257 73.4435,-349.5834"/>
<polygon fill="#000000" stroke="#000000" points="69.9436,-349.5867 73.4435,-359.5867 76.9436,-349.5868 69.9436,-349.5867"/>
</g>
</g>
</svg>
