<?xml version="1.0" encoding="UTF-8" standalone="no"?>
<!DOCTYPE svg PUBLIC "-//W3C//DTD SVG 1.1//EN"
 "http://www.w3.org/Graphics/SVG/1.1/DTD/svg11.dtd">
<!-- Generated by graphviz version 2.40.1 (20161225.0304)
 -->
<!-- Title: unix Pages: 1 -->
<svg width="318pt" height="620pt"
 viewBox="0.00 0.00 317.59 620.00" xmlns="http://www.w3.org/2000/svg" xmlns:xlink="http://www.w3.org/1999/xlink">
<g id="graph0" class="graph" transform="scale(1 1) rotate(0) translate(4 616)">
<title>unix</title>
<polygon fill="#ffffff" stroke="transparent" points="-4,4 -4,-616 313.5871,-616 313.5871,4 -4,4"/>
<!-- professional.n.01 -->
<g id="node1" class="node">
<title>professional.n.01</title>
<ellipse fill="#b2dfee" stroke="#b2dfee" cx="156.0934" cy="-18" rx="71.4873" ry="18"/>
<text text-anchor="middle" x="156.0934" y="-14.3" font-family="Times,serif" font-size="14.00" fill="#000000">professional.n.01</text>
</g>
<!-- adult.n.01 -->
<g id="node2" class="node">
<title>adult.n.01</title>
<ellipse fill="#b2dfee" stroke="#b2dfee" cx="156.0934" cy="-90" rx="46.2923" ry="18"/>
<text text-anchor="middle" x="156.0934" y="-86.3" font-family="Times,serif" font-size="14.00" fill="#000000">adult.n.01</text>
</g>
<!-- professional.n.01&#45;&gt;adult.n.01 -->
<g id="edge1" class="edge">
<title>professional.n.01&#45;&gt;adult.n.01</title>
<path fill="none" stroke="#000000" d="M156.0934,-36.1686C156.0934,-43.869 156.0934,-53.0257 156.0934,-61.5834"/>
<polygon fill="#000000" stroke="#000000" points="152.5935,-61.5867 156.0934,-71.5867 159.5935,-61.5868 152.5935,-61.5867"/>
</g>
<!-- person.n.01 -->
<g id="node3" class="node">
<title>person.n.01</title>
<ellipse fill="#b2dfee" stroke="#b2dfee" cx="156.0934" cy="-162" rx="51.9908" ry="18"/>
<text text-anchor="middle" x="156.0934" y="-158.3" font-family="Times,serif" font-size="14.00" fill="#000000">person.n.01</text>
</g>
<!-- adult.n.01&#45;&gt;person.n.01 -->
<g id="edge2" class="edge">
<title>adult.n.01&#45;&gt;person.n.01</title>
<path fill="none" stroke="#000000" d="M156.0934,-108.1686C156.0934,-115.869 156.0934,-125.0257 156.0934,-133.5834"/>
<polygon fill="#000000" stroke="#000000" points="152.5935,-133.5867 156.0934,-143.5867 159.5935,-133.5868 152.5935,-133.5867"/>
</g>
<!-- causal_agent.n.01 -->
<g id="node4" class="node">
<title>causal_agent.n.01</title>
<ellipse fill="#b2dfee" stroke="#b2dfee" cx="74.0934" cy="-306" rx="74.187" ry="18"/>
<text text-anchor="middle" x="74.0934" y="-302.3" font-family="Times,serif" font-size="14.00" fill="#000000">causal_agent.n.01</text>
</g>
<!-- person.n.01&#45;&gt;causal_agent.n.01 -->
<g id="edge3" class="edge">
<title>person.n.01&#45;&gt;causal_agent.n.01</title>
<path fill="none" stroke="#000000" d="M145.8739,-179.9465C131.695,-204.846 105.9422,-250.0705 89.446,-279.0394"/>
<polygon fill="#000000" stroke="#000000" points="86.3488,-277.4055 84.4418,-287.8273 92.4317,-280.8694 86.3488,-277.4055"/>
</g>
<!-- organism.n.01 -->
<g id="node7" class="node">
<title>organism.n.01</title>
<ellipse fill="#b2dfee" stroke="#b2dfee" cx="219.0934" cy="-234" rx="61.99" ry="18"/>
<text text-anchor="middle" x="219.0934" y="-230.3" font-family="Times,serif" font-size="14.00" fill="#000000">organism.n.01</text>
</g>
<!-- person.n.01&#45;&gt;organism.n.01 -->
<g id="edge6" class="edge">
<title>person.n.01&#45;&gt;organism.n.01</title>
<path fill="none" stroke="#000000" d="M171.344,-179.4292C179.0255,-188.2081 188.4823,-199.0159 196.9478,-208.6907"/>
<polygon fill="#000000" stroke="#000000" points="194.5459,-211.2607 203.765,-216.4818 199.8139,-206.6512 194.5459,-211.2607"/>
</g>
<!-- physical_entity.n.01 -->
<g id="node5" class="node">
<title>physical_entity.n.01</title>
<ellipse fill="#b2dfee" stroke="#b2dfee" cx="156.0934" cy="-522" rx="82.5854" ry="18"/>
<text text-anchor="middle" x="156.0934" y="-518.3" font-family="Times,serif" font-size="14.00" fill="#000000">physical_entity.n.01</text>
</g>
<!-- causal_agent.n.01&#45;&gt;physical_entity.n.01 -->
<g id="edge4" class="edge">
<title>causal_agent.n.01&#45;&gt;physical_entity.n.01</title>
<path fill="none" stroke="#000000" d="M80.9437,-324.0445C95.2936,-361.8444 128.589,-449.5494 145.6322,-494.4436"/>
<polygon fill="#000000" stroke="#000000" points="142.3837,-495.7482 149.205,-503.8549 148.928,-493.2637 142.3837,-495.7482"/>
</g>
<!-- entity.n.01 -->
<g id="node6" class="node">
<title>entity.n.01</title>
<ellipse fill="#b2dfee" stroke="#b2dfee" cx="156.0934" cy="-594" rx="48.9926" ry="18"/>
<text text-anchor="middle" x="156.0934" y="-590.3" font-family="Times,serif" font-size="14.00" fill="#000000">entity.n.01</text>
</g>
<!-- physical_entity.n.01&#45;&gt;entity.n.01 -->
<g id="edge5" class="edge">
<title>physical_entity.n.01&#45;&gt;entity.n.01</title>
<path fill="none" stroke="#000000" d="M156.0934,-540.1686C156.0934,-547.869 156.0934,-557.0257 156.0934,-565.5834"/>
<polygon fill="#000000" stroke="#000000" points="152.5935,-565.5867 156.0934,-575.5867 159.5935,-565.5868 152.5935,-565.5867"/>
</g>
<!-- living_thing.n.01 -->
<g id="node8" class="node">
<title>living_thing.n.01</title>
<ellipse fill="#b2dfee" stroke="#b2dfee" cx="238.0934" cy="-306" rx="71.4873" ry="18"/>
<text text-anchor="middle" x="238.0934" y="-302.3" font-family="Times,serif" font-size="14.00" fill="#000000">living_thing.n.01</text>
</g>
<!-- organism.n.01&#45;&gt;living_thing.n.01 -->
<g id="edge7" class="edge">
<title>organism.n.01&#45;&gt;living_thing.n.01</title>
<path fill="none" stroke="#000000" d="M223.8879,-252.1686C225.9423,-259.9537 228.3895,-269.2271 230.669,-277.8653"/>
<polygon fill="#000000" stroke="#000000" points="227.2986,-278.8108 233.2344,-287.5867 234.0669,-277.0247 227.2986,-278.8108"/>
</g>
<!-- whole.n.02 -->
<g id="node9" class="node">
<title>whole.n.02</title>
<ellipse fill="#b2dfee" stroke="#b2dfee" cx="216.0934" cy="-378" rx="50.0912" ry="18"/>
<text text-anchor="middle" x="216.0934" y="-374.3" font-family="Times,serif" font-size="14.00" fill="#000000">whole.n.02</text>
</g>
<!-- living_thing.n.01&#45;&gt;whole.n.02 -->
<g id="edge8" class="edge">
<title>living_thing.n.01&#45;&gt;whole.n.02</title>
<path fill="none" stroke="#000000" d="M232.5419,-324.1686C230.1265,-332.0734 227.2423,-341.5128 224.5685,-350.2635"/>
<polygon fill="#000000" stroke="#000000" points="221.142,-349.5003 221.567,-360.0866 227.8365,-351.5459 221.142,-349.5003"/>
</g>
<!-- object.n.01 -->
<g id="node10" class="node">
<title>object.n.01</title>
<ellipse fill="#b2dfee" stroke="#b2dfee" cx="205.0934" cy="-450" rx="50.0912" ry="18"/>
<text text-anchor="middle" x="205.0934" y="-446.3" font-family="Times,serif" font-size="14.00" fill="#000000">object.n.01</text>
</g>
<!-- whole.n.02&#45;&gt;object.n.01 -->
<g id="edge9" class="edge">
<title>whole.n.02&#45;&gt;object.n.01</title>
<path fill="none" stroke="#000000" d="M213.3177,-396.1686C212.1412,-403.869 210.7423,-413.0257 209.4349,-421.5834"/>
<polygon fill="#000000" stroke="#000000" points="205.957,-421.1728 207.9066,-431.5867 212.8768,-422.2301 205.957,-421.1728"/>
</g>
<!-- object.n.01&#45;&gt;physical_entity.n.01 -->
<g id="edge10" class="edge">
<title>object.n.01&#45;&gt;physical_entity.n.01</title>
<path fill="none" stroke="#000000" d="M192.9811,-467.7978C187.2683,-476.1921 180.336,-486.3782 174.03,-495.6442"/>
<polygon fill="#000000" stroke="#000000" points="170.9691,-493.9211 168.2363,-504.1575 176.7561,-497.8595 170.9691,-493.9211"/>
</g>
</g>
</svg>
