<?xml version="1.0" encoding="UTF-8" standalone="no"?>
<!DOCTYPE svg PUBLIC "-//W3C//DTD SVG 1.1//EN"
 "http://www.w3.org/Graphics/SVG/1.1/DTD/svg11.dtd">
<!-- Generated by graphviz version 2.40.1 (20161225.0304)
 -->
<!-- Title: unix Pages: 1 -->
<svg width="143pt" height="188pt"
 viewBox="0.00 0.00 143.19 188.00" xmlns="http://www.w3.org/2000/svg" xmlns:xlink="http://www.w3.org/1999/xlink">
<g id="graph0" class="graph" transform="scale(1 1) rotate(0) translate(4 184)">
<title>unix</title>
<polygon fill="#ffffff" stroke="transparent" points="-4,4 -4,-184 139.188,-184 139.188,4 -4,4"/>
<!-- measure.n.02 -->
<g id="node1" class="node">
<title>measure.n.02</title>
<ellipse fill="#b2dfee" stroke="#b2dfee" cx="67.594" cy="-18" rx="58.4896" ry="18"/>
<text text-anchor="middle" x="67.594" y="-14.3" font-family="Times,serif" font-size="14.00" fill="#000000">measure.n.02</text>
</g>
<!-- abstraction.n.06 -->
<g id="node2" class="node">
<title>abstraction.n.06</title>
<ellipse fill="#b2dfee" stroke="#b2dfee" cx="67.594" cy="-90" rx="67.6881" ry="18"/>
<text text-anchor="middle" x="67.594" y="-86.3" font-family="Times,serif" font-size="14.00" fill="#000000">abstraction.n.06</text>
</g>
<!-- measure.n.02&#45;&gt;abstraction.n.06 -->
<g id="edge1" class="edge">
<title>measure.n.02&#45;&gt;abstraction.n.06</title>
<path fill="none" stroke="#000000" d="M67.594,-36.1686C67.594,-43.869 67.594,-53.0257 67.594,-61.5834"/>
<polygon fill="#000000" stroke="#000000" points="64.0941,-61.5867 67.594,-71.5867 71.0941,-61.5868 64.0941,-61.5867"/>
</g>
<!-- entity.n.01 -->
<g id="node3" class="node">
<title>entity.n.01</title>
<ellipse fill="#b2dfee" stroke="#b2dfee" cx="67.594" cy="-162" rx="48.9926" ry="18"/>
<text text-anchor="middle" x="67.594" y="-158.3" font-family="Times,serif" font-size="14.00" fill="#000000">entity.n.01</text>
</g>
<!-- abstraction.n.06&#45;&gt;entity.n.01 -->
<g id="edge2" class="edge">
<title>abstraction.n.06&#45;&gt;entity.n.01</title>
<path fill="none" stroke="#000000" d="M67.594,-108.1686C67.594,-115.869 67.594,-125.0257 67.594,-133.5834"/>
<polygon fill="#000000" stroke="#000000" points="64.0941,-133.5867 67.594,-143.5867 71.0941,-133.5868 64.0941,-133.5867"/>
</g>
</g>
</svg>
