<?xml version="1.0" encoding="UTF-8" standalone="no"?>
<!DOCTYPE svg PUBLIC "-//W3C//DTD SVG 1.1//EN"
 "http://www.w3.org/Graphics/SVG/1.1/DTD/svg11.dtd">
<!-- Generated by graphviz version 2.40.1 (20161225.0304)
 -->
<!-- Title: unix Pages: 1 -->
<svg width="221pt" height="620pt"
 viewBox="0.00 0.00 221.18 620.00" xmlns="http://www.w3.org/2000/svg" xmlns:xlink="http://www.w3.org/1999/xlink">
<g id="graph0" class="graph" transform="scale(1 1) rotate(0) translate(4 616)">
<title>unix</title>
<polygon fill="#ffffff" stroke="transparent" points="-4,4 -4,-616 217.1811,-616 217.1811,4 -4,4"/>
<!-- succession.n.03 -->
<g id="node1" class="node">
<title>succession.n.03</title>
<ellipse fill="#b2dfee" stroke="#b2dfee" cx="106.5905" cy="-18" rx="66.0889" ry="18"/>
<text text-anchor="middle" x="106.5905" y="-14.3" font-family="Times,serif" font-size="14.00" fill="#000000">succession.n.03</text>
</g>
<!-- order.n.15 -->
<g id="node2" class="node">
<title>order.n.15</title>
<ellipse fill="#b2dfee" stroke="#b2dfee" cx="106.5905" cy="-90" rx="47.3916" ry="18"/>
<text text-anchor="middle" x="106.5905" y="-86.3" font-family="Times,serif" font-size="14.00" fill="#000000">order.n.15</text>
</g>
<!-- succession.n.03&#45;&gt;order.n.15 -->
<g id="edge1" class="edge">
<title>succession.n.03&#45;&gt;order.n.15</title>
<path fill="none" stroke="#000000" d="M106.5905,-36.1686C106.5905,-43.869 106.5905,-53.0257 106.5905,-61.5834"/>
<polygon fill="#000000" stroke="#000000" points="103.0906,-61.5867 106.5905,-71.5867 110.0906,-61.5868 103.0906,-61.5867"/>
</g>
<!-- organization.n.06 -->
<g id="node3" class="node">
<title>organization.n.06</title>
<ellipse fill="#b2dfee" stroke="#b2dfee" cx="106.5905" cy="-162" rx="72.5877" ry="18"/>
<text text-anchor="middle" x="106.5905" y="-158.3" font-family="Times,serif" font-size="14.00" fill="#000000">organization.n.06</text>
</g>
<!-- order.n.15&#45;&gt;organization.n.06 -->
<g id="edge2" class="edge">
<title>order.n.15&#45;&gt;organization.n.06</title>
<path fill="none" stroke="#000000" d="M106.5905,-108.1686C106.5905,-115.869 106.5905,-125.0257 106.5905,-133.5834"/>
<polygon fill="#000000" stroke="#000000" points="103.0906,-133.5867 106.5905,-143.5867 110.0906,-133.5868 103.0906,-133.5867"/>
</g>
<!-- activity.n.01 -->
<g id="node4" class="node">
<title>activity.n.01</title>
<ellipse fill="#b2dfee" stroke="#b2dfee" cx="106.5905" cy="-234" rx="55.4913" ry="18"/>
<text text-anchor="middle" x="106.5905" y="-230.3" font-family="Times,serif" font-size="14.00" fill="#000000">activity.n.01</text>
</g>
<!-- organization.n.06&#45;&gt;activity.n.01 -->
<g id="edge3" class="edge">
<title>organization.n.06&#45;&gt;activity.n.01</title>
<path fill="none" stroke="#000000" d="M106.5905,-180.1686C106.5905,-187.869 106.5905,-197.0257 106.5905,-205.5834"/>
<polygon fill="#000000" stroke="#000000" points="103.0906,-205.5867 106.5905,-215.5867 110.0906,-205.5868 103.0906,-205.5867"/>
</g>
<!-- act.n.02 -->
<g id="node5" class="node">
<title>act.n.02</title>
<ellipse fill="#b2dfee" stroke="#b2dfee" cx="106.5905" cy="-306" rx="38.9931" ry="18"/>
<text text-anchor="middle" x="106.5905" y="-302.3" font-family="Times,serif" font-size="14.00" fill="#000000">act.n.02</text>
</g>
<!-- activity.n.01&#45;&gt;act.n.02 -->
<g id="edge4" class="edge">
<title>activity.n.01&#45;&gt;act.n.02</title>
<path fill="none" stroke="#000000" d="M106.5905,-252.1686C106.5905,-259.869 106.5905,-269.0257 106.5905,-277.5834"/>
<polygon fill="#000000" stroke="#000000" points="103.0906,-277.5867 106.5905,-287.5867 110.0906,-277.5868 103.0906,-277.5867"/>
</g>
<!-- event.n.01 -->
<g id="node6" class="node">
<title>event.n.01</title>
<ellipse fill="#b2dfee" stroke="#b2dfee" cx="106.5905" cy="-378" rx="48.1917" ry="18"/>
<text text-anchor="middle" x="106.5905" y="-374.3" font-family="Times,serif" font-size="14.00" fill="#000000">event.n.01</text>
</g>
<!-- act.n.02&#45;&gt;event.n.01 -->
<g id="edge5" class="edge">
<title>act.n.02&#45;&gt;event.n.01</title>
<path fill="none" stroke="#000000" d="M106.5905,-324.1686C106.5905,-331.869 106.5905,-341.0257 106.5905,-349.5834"/>
<polygon fill="#000000" stroke="#000000" points="103.0906,-349.5867 106.5905,-359.5867 110.0906,-349.5868 103.0906,-349.5867"/>
</g>
<!-- psychological_feature.n.01 -->
<g id="node7" class="node">
<title>psychological_feature.n.01</title>
<ellipse fill="#b2dfee" stroke="#b2dfee" cx="106.5905" cy="-450" rx="106.6812" ry="18"/>
<text text-anchor="middle" x="106.5905" y="-446.3" font-family="Times,serif" font-size="14.00" fill="#000000">psychological_feature.n.01</text>
</g>
<!-- event.n.01&#45;&gt;psychological_feature.n.01 -->
<g id="edge6" class="edge">
<title>event.n.01&#45;&gt;psychological_feature.n.01</title>
<path fill="none" stroke="#000000" d="M106.5905,-396.1686C106.5905,-403.869 106.5905,-413.0257 106.5905,-421.5834"/>
<polygon fill="#000000" stroke="#000000" points="103.0906,-421.5867 106.5905,-431.5867 110.0906,-421.5868 103.0906,-421.5867"/>
</g>
<!-- abstraction.n.06 -->
<g id="node8" class="node">
<title>abstraction.n.06</title>
<ellipse fill="#b2dfee" stroke="#b2dfee" cx="106.5905" cy="-522" rx="67.6881" ry="18"/>
<text text-anchor="middle" x="106.5905" y="-518.3" font-family="Times,serif" font-size="14.00" fill="#000000">abstraction.n.06</text>
</g>
<!-- psychological_feature.n.01&#45;&gt;abstraction.n.06 -->
<g id="edge7" class="edge">
<title>psychological_feature.n.01&#45;&gt;abstraction.n.06</title>
<path fill="none" stroke="#000000" d="M106.5905,-468.1686C106.5905,-475.869 106.5905,-485.0257 106.5905,-493.5834"/>
<polygon fill="#000000" stroke="#000000" points="103.0906,-493.5867 106.5905,-503.5867 110.0906,-493.5868 103.0906,-493.5867"/>
</g>
<!-- entity.n.01 -->
<g id="node9" class="node">
<title>entity.n.01</title>
<ellipse fill="#b2dfee" stroke="#b2dfee" cx="106.5905" cy="-594" rx="48.9926" ry="18"/>
<text text-anchor="middle" x="106.5905" y="-590.3" font-family="Times,serif" font-size="14.00" fill="#000000">entity.n.01</text>
</g>
<!-- abstraction.n.06&#45;&gt;entity.n.01 -->
<g id="edge8" class="edge">
<title>abstraction.n.06&#45;&gt;entity.n.01</title>
<path fill="none" stroke="#000000" d="M106.5905,-540.1686C106.5905,-547.869 106.5905,-557.0257 106.5905,-565.5834"/>
<polygon fill="#000000" stroke="#000000" points="103.0906,-565.5867 106.5905,-575.5867 110.0906,-565.5868 103.0906,-565.5867"/>
</g>
</g>
</svg>
