<?xml version="1.0" encoding="UTF-8" standalone="no"?>
<!DOCTYPE svg PUBLIC "-//W3C//DTD SVG 1.1//EN"
 "http://www.w3.org/Graphics/SVG/1.1/DTD/svg11.dtd">
<!-- Generated by graphviz version 2.40.1 (20161225.0304)
 -->
<!-- Title: unix Pages: 1 -->
<svg width="221pt" height="332pt"
 viewBox="0.00 0.00 221.18 332.00" xmlns="http://www.w3.org/2000/svg" xmlns:xlink="http://www.w3.org/1999/xlink">
<g id="graph0" class="graph" transform="scale(1 1) rotate(0) translate(4 328)">
<title>unix</title>
<polygon fill="#ffffff" stroke="transparent" points="-4,4 -4,-328 217.1811,-328 217.1811,4 -4,4"/>
<!-- time_period.n.01 -->
<g id="node1" class="node">
<title>time_period.n.01</title>
<ellipse fill="#b2dfee" stroke="#b2dfee" cx="106.5905" cy="-18" rx="71.4873" ry="18"/>
<text text-anchor="middle" x="106.5905" y="-14.3" font-family="Times,serif" font-size="14.00" fill="#000000">time_period.n.01</text>
</g>
<!-- fundamental_quantity.n.01 -->
<g id="node2" class="node">
<title>fundamental_quantity.n.01</title>
<ellipse fill="#b2dfee" stroke="#b2dfee" cx="106.5905" cy="-90" rx="106.6812" ry="18"/>
<text text-anchor="middle" x="106.5905" y="-86.3" font-family="Times,serif" font-size="14.00" fill="#000000">fundamental_quantity.n.01</text>
</g>
<!-- time_period.n.01&#45;&gt;fundamental_quantity.n.01 -->
<g id="edge1" class="edge">
<title>time_period.n.01&#45;&gt;fundamental_quantity.n.01</title>
<path fill="none" stroke="#000000" d="M106.5905,-36.1686C106.5905,-43.869 106.5905,-53.0257 106.5905,-61.5834"/>
<polygon fill="#000000" stroke="#000000" points="103.0906,-61.5867 106.5905,-71.5867 110.0906,-61.5868 103.0906,-61.5867"/>
</g>
<!-- measure.n.02 -->
<g id="node3" class="node">
<title>measure.n.02</title>
<ellipse fill="#b2dfee" stroke="#b2dfee" cx="106.5905" cy="-162" rx="58.4896" ry="18"/>
<text text-anchor="middle" x="106.5905" y="-158.3" font-family="Times,serif" font-size="14.00" fill="#000000">measure.n.02</text>
</g>
<!-- fundamental_quantity.n.01&#45;&gt;measure.n.02 -->
<g id="edge2" class="edge">
<title>fundamental_quantity.n.01&#45;&gt;measure.n.02</title>
<path fill="none" stroke="#000000" d="M106.5905,-108.1686C106.5905,-115.869 106.5905,-125.0257 106.5905,-133.5834"/>
<polygon fill="#000000" stroke="#000000" points="103.0906,-133.5867 106.5905,-143.5867 110.0906,-133.5868 103.0906,-133.5867"/>
</g>
<!-- abstraction.n.06 -->
<g id="node4" class="node">
<title>abstraction.n.06</title>
<ellipse fill="#b2dfee" stroke="#b2dfee" cx="106.5905" cy="-234" rx="67.6881" ry="18"/>
<text text-anchor="middle" x="106.5905" y="-230.3" font-family="Times,serif" font-size="14.00" fill="#000000">abstraction.n.06</text>
</g>
<!-- measure.n.02&#45;&gt;abstraction.n.06 -->
<g id="edge3" class="edge">
<title>measure.n.02&#45;&gt;abstraction.n.06</title>
<path fill="none" stroke="#000000" d="M106.5905,-180.1686C106.5905,-187.869 106.5905,-197.0257 106.5905,-205.5834"/>
<polygon fill="#000000" stroke="#000000" points="103.0906,-205.5867 106.5905,-215.5867 110.0906,-205.5868 103.0906,-205.5867"/>
</g>
<!-- entity.n.01 -->
<g id="node5" class="node">
<title>entity.n.01</title>
<ellipse fill="#b2dfee" stroke="#b2dfee" cx="106.5905" cy="-306" rx="48.9926" ry="18"/>
<text text-anchor="middle" x="106.5905" y="-302.3" font-family="Times,serif" font-size="14.00" fill="#000000">entity.n.01</text>
</g>
<!-- abstraction.n.06&#45;&gt;entity.n.01 -->
<g id="edge4" class="edge">
<title>abstraction.n.06&#45;&gt;entity.n.01</title>
<path fill="none" stroke="#000000" d="M106.5905,-252.1686C106.5905,-259.869 106.5905,-269.0257 106.5905,-277.5834"/>
<polygon fill="#000000" stroke="#000000" points="103.0906,-277.5867 106.5905,-287.5867 110.0906,-277.5868 103.0906,-277.5867"/>
</g>
</g>
</svg>
